<?xml version="1.0" standalone="no"?>
<!DOCTYPE svg PUBLIC "-//W3C//DTD SVG 1.1//EN" "http://www.w3.org/Graphics/SVG/1.1/DTD/svg11.dtd" >
<svg xmlns="http://www.w3.org/2000/svg" xmlns:xlink="http://www.w3.org/1999/xlink" version="1.1">
<metadata>
Created by FontForge 20170910 at Wed Nov  6 11:23:29 2013
 By Jimmy Wärting
Hallo sans light (c) Fredrik Staurland. 2013. All Rights Reserved
</metadata>
<defs>
<font id="Hallosans-Light" horiz-adv-x="1014" >
  <font-face 
    font-family="Hallo sans"
    font-weight="300"
    font-stretch="normal"
    units-per-em="2048"
    panose-1="2 0 5 0 0 0 0 0 0 0"
    ascent="1638"
    descent="-410"
    x-height="837"
    cap-height="1288"
    bbox="-342 -520 2048 1716"
    underline-thickness="150"
    underline-position="-292"
    unicode-range="U+001D-F002"
  />
<missing-glyph horiz-adv-x="1024" 
d="M100 0v1434h824v-1434h-824zM150 50h724v1334h-724v-1334zM325 1148q31 28 58 43q53 30 112 30q92 0 148 -47.5t56 -127.5q0 -49 -23 -98.5t-87 -129.5q-63 -80 -99 -132t-36 -99q0 -38 24 -133h-32q-35 97 -35 148q0 76 81.5 218t81.5 217q0 57 -33 90t-91 33
q-38 0 -69 -17q-26 -15 -56 -40v45zM389 334l57 58q11 10 20 10q10 0 22 -11l56 -60q9 -11 9 -20q0 -11 -10 -22l-56 -62q-14 -14 -21 -14q-11 0 -20 10l-61 71q-7 9 -7 18q0 10 11 22z" />
    <glyph glyph-name=".notdef" horiz-adv-x="1024" 
d="M100 0v1434h824v-1434h-824zM150 50h724v1334h-724v-1334zM325 1148q31 28 58 43q53 30 112 30q92 0 148 -47.5t56 -127.5q0 -49 -23 -98.5t-87 -129.5q-63 -80 -99 -132t-36 -99q0 -38 24 -133h-32q-35 97 -35 148q0 76 81.5 218t81.5 217q0 57 -33 90t-91 33
q-38 0 -69 -17q-26 -15 -56 -40v45zM389 334l57 58q11 10 20 10q10 0 22 -11l56 -60q9 -11 9 -20q0 -11 -10 -22l-56 -62q-14 -14 -21 -14q-11 0 -20 10l-61 71q-7 9 -7 18q0 10 11 22z" />
    <glyph glyph-name=".null" horiz-adv-x="0" 
 />
    <glyph glyph-name=".null" horiz-adv-x="0" 
 />
    <glyph glyph-name="nonmarkingreturn" horiz-adv-x="508" 
 />
    <glyph glyph-name="space" unicode=" " horiz-adv-x="508" 
 />
    <glyph glyph-name="space" unicode="&#xa0;" horiz-adv-x="508" 
 />
    <glyph glyph-name="exclam" unicode="!" horiz-adv-x="400" 
d="M118 266h88v1079h-88v-1079zM120 -30q-20 19 -20 47t20 47q19 20 47 20t47 -20q20 -19 20 -47t-20 -47q-19 -20 -47 -20t-47 20z" />
    <glyph glyph-name="quotedbl" unicode="&#x22;" horiz-adv-x="463" 
d="M-100 1000q6 64 83 175q82 119 88 191h88q-6 -99 -104 -241q-59 -86 -66 -125h-89zM99 1000q6 64 83 175q82 119 88 191h88q-6 -99 -104 -241q-59 -86 -66 -125h-89z" />
    <glyph glyph-name="numbersign" unicode="#" horiz-adv-x="1200" 
d="M870 1291l-66 -332h-420l67 332h-88l-66 -332h-174l-17 -87h173l-88 -440h-173l-18 -88h174l-70 -344h88l69 344h419l-69 -344h87l69 344h178l17 88h-177l88 440h178l17 87h-177l66 332h-87zM367 872h419l-88 -440h-420z" />
    <glyph glyph-name="dollar" unicode="$" 
d="M411 1215q-8 -2 -14 -3q-63 -17 -108 -77q-49 -65 -41 -135q12 -110 162 -183l27 -13v417zM525 73l22 4q14 3 24 5q121 30 175 143q44 91 28 187q-24 148 -222 247l-27 13v-599zM437 -140v123l-17 2q-111 14 -198 82q-86 69 -122 173l85 24q59 -161 230 -189l22 -4v637
l-12 5q-245 103 -265 277q-12 107 58 198q64 84 157 109q20 5 46 9l16 3v163h88v-162l15 -2q173 -26 231 -174l-85 -26q-36 84 -138 108l-23 6v-454l11 -5q291 -124 325 -337q22 -138 -45 -259q-75 -133 -224 -170q-24 -6 -51 -10l-16 -2v-125h-88z" />
    <glyph glyph-name="percent" unicode="%" horiz-adv-x="1239" 
d="M147 0q8 159 162 384q92 134 330 410q332 384 349 497h88q-14 -142 -370 -554q-457 -529 -471 -737h-88zM228 1209q-40 -40 -40 -97t40 -98q41 -40 98 -40t97 40q41 41 41 98t-41 97q-40 41 -97 41t-98 -41zM166 952q-66 66 -66 160q0 93 66 159q66 67 160 67
q93 0 160 -67q66 -66 66 -159q0 -94 -66 -160q-67 -66 -160 -66q-94 0 -160 66zM773 332q-41 -41 -41 -98t41 -97q40 -41 97 -41t98 41q40 40 40 97t-40 98q-41 40 -98 40t-97 -40zM710 75q-66 66 -66 159q0 94 66 160q67 66 160 66q94 0 160 -66t66 -160q0 -93 -66 -159
q-66 -67 -160 -67q-93 0 -160 67z" />
    <glyph glyph-name="ampersand" unicode="&#x26;" horiz-adv-x="1141" 
d="M323 673q-83 -49 -104 -89q-29 -58 -31 -185q-1 -102 11 -167q16 -78 53 -111q45 -40 141 -40h218q140 0 178 94l4 11l-457 495zM858 116l-13 -20q-68 -103 -234 -103h-218q-122 0 -189 53q-68 54 -91 169q-14 75 -13 186q2 148 41 223q29 56 115 111l18 12l-44 47
q-69 77 -52 263l3 36q7 103 91 162t225 61h10q141 -2 225 -61t92 -162q1 -13 3 -36q11 -127 -9 -187q-33 -101 -162 -152l-30 82q89 36 110 99q13 41 3 150q-2 25 -3 38q-10 140 -234 141q-223 -1 -234 -141q-1 -14 -3 -38q-13 -147 30 -195l519 -561l2 45q1 24 1 49v198h87
v-198q1 -98 -12 -167l-2 -9l158 -171l-64 -60z" />
    <glyph glyph-name="quotesingle" unicode="'" horiz-adv-x="300" 
d="M-100 1000q6 64 83 175q82 119 88 191h88q-6 -99 -104 -241q-59 -86 -66 -125h-89z" />
    <glyph glyph-name="parenleft" unicode="(" horiz-adv-x="500" 
d="M324 -170q-74 91 -130 241q-94 252 -94 581q0 549 224 822l31 -29l33 -32q-200 -260 -200 -761t200 -761z" />
    <glyph glyph-name="parenright" unicode=")" horiz-adv-x="537" 
d="M100 -109q200 260 200 761t-200 761l33 32l31 29q224 -273 224 -822q0 -329 -93 -581q-56 -150 -131 -241z" />
    <glyph glyph-name="asterisk" unicode="*" horiz-adv-x="700" 
d="M301 1552v-166l-117 117l-35 -35l117 -117h-166v-50h166l-117 -117l35 -35l117 117v-166h50v166l117 -117l35 35l-117 117h166v50h-166l117 117l-35 35l-117 -117v166h-50z" />
    <glyph glyph-name="plus" unicode="+" 
d="M456 1100v-356h-356v-88h356v-356h88v356h356v88h-356v356h-88z" />
    <glyph glyph-name="comma" unicode="," horiz-adv-x="400" 
d="M0 -170q6 64 83 175q82 119 88 191h88q-6 -99 -104 -241q-59 -86 -66 -125h-89z" />
    <glyph glyph-name="hyphen" unicode="-" horiz-adv-x="900" 
d="M100 700h601v88h-601v-88z" />
    <glyph glyph-name="hyphen" unicode="&#xad;" horiz-adv-x="900" 
d="M100 700h601v88h-601v-88z" />
    <glyph glyph-name="period" unicode="." horiz-adv-x="365" 
d="M120 50q-20 19 -20 47t20 47q19 20 47 20t47 -20q20 -19 20 -47t-20 -47q-19 -20 -47 -20t-47 20z" />
    <glyph glyph-name="slash" unicode="/" horiz-adv-x="569" 
d="M398 1288l-298 -1288h87l298 1288h-87z" />
    <glyph glyph-name="zero" unicode="0" horiz-adv-x="938" 
d="M233 1174q-55 -42 -73 -139q-13 -66 -13 -392q-1 -338 16 -399q26 -88 82 -128q68 -48 204 -48q139 0 203 45q54 38 81 131q17 61 17 399q-1 326 -14 392q-19 101 -88 146q-68 44 -206 44q-144 0 -209 -51zM203 37q-87 56 -124 182q-21 73 -19 434q2 338 14 399
q25 135 114 198t254 63q331 0 380 -261q12 -61 14 -399q2 -360 -19 -434q-37 -127 -123 -183t-245 -56q-158 0 -246 57z" />
    <glyph glyph-name="one" unicode="1" horiz-adv-x="543" 
d="M315 0v1140l-31 -25q-17 -15 -44 -36q-72 -57 -87 -79h-93q11 58 126 148q114 90 127 140h90v-1288h-88z" />
    <glyph glyph-name="two" unicode="2" horiz-adv-x="800" 
d="M60 0v445q0 58 42 114q37 51 79 67q40 15 130 49q119 45 173 65q101 38 125 101q15 40 6 151q-2 22 -3 37q-7 88 -94 134q-66 34 -145 34h-295v88h295q123 0 213 -61q104 -68 113 -188q1 -14 3 -36q11 -128 -11 -188q-37 -102 -177 -154q-62 -23 -185 -70l-117 -45
q-20 -9 -41 -37q-23 -32 -23 -61v-357h513v-88h-601z" />
    <glyph glyph-name="three" unicode="3" horiz-adv-x="840" 
d="M60 0v88h364q96 0 141 40q37 33 53 112q42 212 -20 333q-29 56 -156 118l-7 3l-129 -51l-32 82l189 75q71 34 87 89q11 35 2 130v6q-2 23 -3 33q-11 142 -239 142h-250v88h250q145 0 232 -59t94 -164q2 -17 4 -38q8 -97 0 -144q-15 -77 -81 -127l-21 -16l22 -15
q87 -55 116 -111q76 -149 28 -392q-23 -115 -91 -169q-67 -53 -189 -53h-364z" />
    <glyph glyph-name="four" unicode="4" horiz-adv-x="800" 
d="M598 0v583l-11 5q-136 60 -263 109q-158 62 -219 169q-45 77 -45 197v225h88v-225q0 -105 39 -164q46 -72 169 -120q100 -39 216 -89l26 -11v609h88v-1288h-88z" />
    <glyph glyph-name="five" unicode="5" horiz-adv-x="800" 
d="M78 0v88h295q79 0 145 34q87 45 93 134l2 24q13 155 -6 231q-26 109 -123 145q-44 16 -161 61q-102 38 -142 53q-42 16 -79 67q-42 56 -42 114v334h601v-88h-513v-246q0 -29 23 -61q21 -29 40 -37l122 -46q121 -46 182 -69q141 -53 178 -209q21 -88 8 -256l-2 -23
q-9 -121 -112 -190q-91 -60 -214 -60h-295z" />
    <glyph glyph-name="six" unicode="6" horiz-adv-x="831" 
d="M163 743q-2 -394 7 -514q11 -139 234 -141q223 2 234 141l2 22q13 169 -6 251q-27 119 -122 153l-349 114v-26zM399 0q-141 2 -225 61t-91 162q-47 624 3 848q23 115 91 169q67 53 189 53h235v-88h-235q-96 0 -141 -39q-37 -34 -53 -112q-5 -30 -8 -180v-13l377 -123
q141 -50 179 -216q21 -96 7 -278l-2 -21q-7 -103 -91 -162t-225 -61h-10z" />
    <glyph glyph-name="seven" unicode="7" horiz-adv-x="754" 
d="M238 0q5 228 182 575q153 299 153 467v157h-513v88h601v-245q0 -189 -163 -507q-167 -328 -172 -535h-88z" />
    <glyph glyph-name="eight" unicode="8" horiz-adv-x="969" 
d="M462 1227q-223 -2 -233 -133q-1 -13 -3 -38q-10 -104 1 -143q18 -62 93 -98l144 -56l143 56q77 36 94 98q11 39 2 143v4q-2 25 -3 34q-10 131 -234 133h-4zM335 708q-126 -60 -155 -117q-30 -58 -32 -185q-1 -102 12 -167q16 -78 53 -111q44 -40 141 -40h221q96 0 141 40
q37 33 53 111q13 65 11 167q-1 127 -31 185q-30 57 -156 117l-7 4l-122 -48l-121 48zM354 0q-122 0 -190 54q-67 53 -90 168q-15 77 -14 187q2 146 42 222q29 57 116 113l23 14l-21 16q-67 53 -82 138q-9 50 0 152q2 26 3 36q6 82 63 136q80 76 254 78h13q173 -2 254 -78
q56 -54 62 -136q2 -15 3 -36q9 -102 1 -152q-16 -85 -82 -138l-21 -16l22 -14q87 -56 117 -113q79 -152 28 -409q-23 -115 -91 -168q-67 -54 -189 -54h-221z" />
    <glyph glyph-name="nine" unicode="9" horiz-adv-x="834" 
d="M390 1235q-224 -1 -234 -141q-1 -10 -3 -38q-10 -113 5 -155q24 -64 124 -100l349 -114v26q-1 292 -7 381q-11 140 -234 141v0zM343 0q-118 0 -178 43q-60 44 -85 148l86 17q16 -69 50 -94q37 -26 127 -26h85q96 0 141 40q37 33 52 111q8 41 10 343v13l-378 123
q-141 51 -178 154q-21 61 -10 192q3 26 3 36q8 103 92 162t225 61h10q140 -2 224 -61t92 -162q47 -624 -4 -878q-23 -115 -90 -168q-67 -54 -189 -54h-85z" />
    <glyph glyph-name="colon" unicode=":" horiz-adv-x="353" 
d="M120 855q-20 19 -20 47t20 47q19 20 47 20t47 -20q20 -19 20 -47t-20 -47q-19 -20 -47 -20t-47 20zM120 330q-20 19 -20 47t20 47q19 20 47 20t47 -20q20 -19 20 -47t-20 -47q-19 -20 -47 -20t-47 20z" />
    <glyph glyph-name="semicolon" unicode=";" horiz-adv-x="356" 
d="M116 861q-20 20 -20 47q0 28 20 48q20 19 47 19q28 0 48 -19q19 -20 19 -48q0 -27 -19 -47q-20 -20 -48 -20q-27 0 -47 20zM-33 -50q6 64 83 175q82 120 88 192h88q-6 -100 -104 -242q-59 -86 -66 -125h-89z" />
    <glyph glyph-name="semicolon" unicode="&#x37e;" horiz-adv-x="356" 
d="M116 861q-20 20 -20 47q0 28 20 48q20 19 47 19q28 0 48 -19q19 -20 19 -48q0 -27 -19 -47q-20 -20 -48 -20q-27 0 -47 20zM-33 -50q6 64 83 175q82 120 88 192h88q-6 -100 -104 -242q-59 -86 -66 -125h-89z" />
    <glyph glyph-name="less" unicode="&#x3c;" horiz-adv-x="700" 
d="M529 1179l-428 -421l428 -427v123l-304 304l304 301v120z" />
    <glyph glyph-name="equal" unicode="=" horiz-adv-x="1067" 
d="M100 420h800v88h-800v-88zM100 753h800v87h-800v-87z" />
    <glyph glyph-name="greater" unicode="&#x3e;" horiz-adv-x="647" 
d="M101 1059l304 -301l-304 -304v-123l428 427l-428 421v-120z" />
    <glyph glyph-name="question" unicode="?" horiz-adv-x="900" 
d="M287 188v294q0 57 41 113q36 49 78 67l9 4q72 31 150 70q103 50 127 113q16 41 7 150l-2 28q-7 88 -94 134q-66 34 -145 34q-152 0 -220 -74q-45 -48 -50 -120l-88 -7q3 111 73 187q94 102 285 102q123 0 214 -60q104 -69 113 -190l2 -27q10 -126 -11 -185
q-36 -97 -172 -164q-80 -40 -153 -72l-10 -4q-19 -8 -40 -36q-26 -33 -26 -63v-294h-88zM284 -100q-20 20 -20 49q0 28 20 48t49 20q28 0 48 -20t20 -48q0 -29 -20 -49t-48 -20q-29 0 -49 20z" />
    <glyph glyph-name="at" unicode="@" horiz-adv-x="1450" 
d="M523 483q-60 -54 -60 -145q0 -122 74 -174q48 -34 117 -34q148 0 219 89l4 5v247l-4 6q-52 60 -191 60q-100 0 -159 -54zM471 -150q-149 3 -233 60q-83 57 -119 179q-20 70 -19 426q1 339 14 406q26 136 114 199q89 62 254 62h397q158 0 246 -56q88 -57 124 -183
q21 -74 19 -406q-2 -308 -14 -369q-22 -118 -90 -148q-48 -22 -225 -22h-62v107l-27 -15q-91 -48 -196 -48q-127 0 -203 81q-76 80 -76 215q0 129 85 208t222 79q103 0 169 -28l27 -11l-1 29q0 105 -22 151q-26 54 -98 75q-33 9 -74 9q-100 0 -196 -45l-41 78q114 55 237 55
q53 0 98 -13q115 -32 156 -126q28 -65 28 -191v-522h19q113 1 142 13q28 12 42 85q13 66 13 366q1 310 -16 369q-26 88 -82 127q-68 49 -204 49h-397q-144 0 -209 -51q-55 -42 -73 -139q-12 -66 -13 -392q-1 -338 17 -400q24 -84 77 -124q63 -48 190 -51v-88z" />
    <glyph glyph-name="A" unicode="A" horiz-adv-x="1000" 
d="M474 1134q-127 -336 -209 -608l-8 -24h471l-7 24q-84 272 -212 608l-18 47zM839 0q-5 135 -81 401l-4 13h-522l-4 -13q-74 -266 -79 -401h-88q12 353 384 1288h91q378 -934 390 -1288h-87z" />
    <glyph glyph-name="B" unicode="B" horiz-adv-x="900" 
d="M150 672l24 7q193 61 312 104q101 36 125 92q16 37 6 144q-3 26 -4 39q-10 142 -238 142h-225v-528zM492 692q-130 -46 -329 -108l-13 -4v-492h339q96 0 141 40q37 33 52 111q43 213 -20 334q-30 60 -155 118l-7 4zM62 0v1288h313q145 0 232 -59q86 -60 94 -164
q2 -21 3 -38q9 -97 0 -144q-15 -77 -80 -127l-21 -16l22 -14q86 -56 115 -112q77 -148 28 -392q-23 -115 -90 -168q-67 -54 -189 -54h-427z" />
    <glyph glyph-name="C" unicode="C" horiz-adv-x="926" 
d="M203 37q-87 56 -124 182q-21 74 -19 434q2 338 14 399q25 135 114 198t254 63q320 0 377 -243l-87 -16q-22 90 -90 131q-69 40 -200 40q-144 0 -209 -51q-55 -42 -73 -139q-13 -66 -13 -392q-1 -338 17 -399q25 -88 81 -128q68 -48 204 -48q132 0 196 40q55 35 82 118
l85 -25q-39 -117 -124 -169t-239 -52q-158 0 -246 57z" />
    <glyph glyph-name="D" unicode="D" horiz-adv-x="900" 
d="M152 88h240q139 0 203 45q54 38 80 131q18 59 17 375q0 305 -13 372q-19 101 -88 145q-69 45 -206 45h-237zM65 0l-5 1288h325q331 0 380 -261q12 -61 14 -375q3 -337 -19 -413q-37 -127 -123 -183t-245 -56h-327z" />
    <glyph glyph-name="E" unicode="E" horiz-adv-x="745" 
d="M60 1289v-1289h615v88h-527v605h438v87h-438v422h482v87h-570z" />
    <glyph glyph-name="F" unicode="F" horiz-adv-x="700" 
d="M60 1289v-1289h88v692h438v88h-438v421h482v88h-570z" />
    <glyph glyph-name="G" unicode="G" horiz-adv-x="951" 
d="M203 37q-87 56 -124 182q-21 74 -19 434q2 338 14 399q25 135 114 198t254 63q320 0 377 -243l-87 -16q-22 90 -90 131q-69 40 -200 40q-144 0 -209 -51q-55 -42 -73 -139q-13 -66 -13 -392q-1 -338 17 -399q25 -88 81 -128q68 -48 204 -48q139 0 203 45q54 38 81 131
q14 51 16 318v18h-226v88h314v-44q0 -334 -20 -405q-37 -127 -123 -183t-245 -56q-158 0 -246 57z" />
    <glyph glyph-name="H" unicode="H" horiz-adv-x="849" 
d="M654 1288v-508h-506v508h-88v-1288h88v692h506v-692h88v1288h-88z" />
    <glyph glyph-name="I" unicode="I" horiz-adv-x="300" 
d="M70 0h88v1288h-88v-1288z" />
    <glyph glyph-name="J" unicode="J" horiz-adv-x="736" 
d="M225 -17q-166 48 -175 237h88q8 -122 112 -152q34 -10 76 -10q51 0 92 17q58 24 82 87q24 64 24 194v928h88v-928q0 -126 -20 -195q-36 -124 -141 -167q-56 -24 -125 -24q-55 0 -101 13z" />
    <glyph glyph-name="K" unicode="K" horiz-adv-x="859" 
d="M714 0q-12 212 -299 670l-8 12l-14 -5q-109 -40 -233 -90l-12 -4v-583h-88v1288h88v-611l25 10q136 54 245 93q124 44 171 117q40 60 40 166v225h88v-225q0 -240 -207 -340l-19 -9l11 -18q289 -464 300 -696h-88z" />
    <glyph glyph-name="L" unicode="L" horiz-adv-x="754" 
d="M60 1289v-1289h615v88h-527v1201h-88z" />
    <glyph glyph-name="M" unicode="M" horiz-adv-x="1227" 
d="M1046 0q-6 293 -173 1107l-12 59l-24 -56q-187 -446 -196 -649h-89q-9 203 -200 649l-24 56l-12 -59q-162 -815 -168 -1107h-88q6 351 206 1287h91q146 -286 221 -529l18 -58l18 58q74 243 217 529h91q205 -937 212 -1287h-88z" />
    <glyph glyph-name="N" unicode="N" horiz-adv-x="900" 
d="M699 0q-11 210 -358 740q-113 172 -158 249l-35 59v-1048h-88v1288h89q13 -116 265 -500q179 -273 250 -410l35 -76v986h88v-1288h-88z" />
    <glyph glyph-name="O" unicode="O" horiz-adv-x="938" 
d="M233 1174q-55 -42 -73 -139q-13 -66 -13 -392q-1 -338 17 -399q25 -88 81 -128q68 -48 204 -48q139 0 203 45q54 38 81 131q17 61 17 399q-1 326 -14 392q-19 101 -88 146q-68 44 -206 44q-144 0 -209 -51zM203 37q-87 56 -124 182q-21 74 -19 434q2 338 14 399
q25 135 114 198t254 63q331 0 380 -261q12 -61 14 -399q2 -360 -19 -434q-37 -127 -123 -183t-245 -56q-158 0 -246 57z" />
    <glyph glyph-name="P" unicode="P" horiz-adv-x="773" 
d="M148 627l24 7q193 54 312 97q99 35 123 100q18 46 8 166q-3 24 -3 36q-7 88 -94 134q-66 34 -145 34h-225v-574zM60 0v1289h313q123 0 213 -61q104 -68 113 -189l3 -35q12 -135 -10 -198q-37 -107 -178 -158q-137 -49 -352 -108l-14 -4v-536h-88z" />
    <glyph glyph-name="Q" unicode="Q" horiz-adv-x="1000" 
d="M233 1174q-55 -42 -73 -139q-13 -66 -13 -392q-1 -338 16 -399q26 -88 82 -128q68 -48 204 -48q167 0 230 69l13 14l-14 12q-118 108 -127 205h88q9 -50 67 -110l26 -27l5 38q14 100 12 410q-2 299 -13 356q-19 101 -88 146q-68 44 -206 44q-144 0 -209 -51zM203 37
q-87 56 -124 182q-21 74 -19 434q2 338 14 399q25 135 114 198t254 63q331 0 380 -261q12 -61 14 -399q2 -360 -19 -434q-5 -16 -11 -34l-5 -12l10 -9q109 -95 119 -163h-90q-12 30 -69 81l-14 12l-12 -14q-90 -100 -296 -100q-158 0 -246 57z" />
    <glyph glyph-name="R" unicode="R" horiz-adv-x="834" 
d="M148 627l24 7q193 54 312 97q95 34 121 97q16 41 12 149q-1 40 -1 59q0 82 -87 128q-70 37 -156 37h-225v-574zM655 0q-12 199 -254 596l-7 12l-14 -4q-97 -31 -218 -64l-14 -4v-536h-88v1289h313q130 0 225 -65q106 -72 106 -188q0 -18 1 -56q5 -126 -19 -185
q-39 -99 -172 -147l-35 -12l12 -20q242 -402 251 -616h-87z" />
    <glyph glyph-name="S" unicode="S" horiz-adv-x="871" 
d="M169 60q-91 70 -129 177l84 25q30 -80 96 -132q80 -62 191 -62q48 0 99 12q121 30 175 142q43 91 28 187q-28 174 -300 281q-128 51 -190 97q-110 81 -123 199q-12 107 57 198q64 84 157 108q56 15 111 15q101 0 177 -47q75 -47 107 -130l-84 -26q-50 115 -201 115
q-43 0 -87 -11q-63 -17 -109 -77q-48 -65 -41 -135q9 -80 86 -138q53 -39 172 -86q319 -125 355 -349q22 -137 -46 -258q-74 -133 -223 -170q-61 -15 -120 -15q-138 0 -242 80z" />
    <glyph glyph-name="T" unicode="T" horiz-adv-x="751" 
d="M50 1288v-88h281v-1200h88v1200h281v88h-650z" />
    <glyph glyph-name="U" unicode="U" horiz-adv-x="846" 
d="M201 46q-90 66 -121 173q-30 104 -15 1072h88q-15 -952 11 -1047q25 -86 99 -134q65 -42 143 -42q87 0 151 47t88 129q26 95 12 1047h88q14 -968 -16 -1072q-31 -109 -119 -174t-204 -65q-115 0 -205 66z" />
    <glyph glyph-name="V" unicode="V" horiz-adv-x="954" 
d="M437 0q-365 929 -377 1288h88q11 -296 316 -1114l18 -47l17 47q302 818 312 1114h88q-12 -358 -371 -1288h-91z" />
    <glyph glyph-name="W" unicode="W" horiz-adv-x="1346" 
d="M907 0q-141 299 -220 555l-18 58l-18 -58q-78 -256 -217 -555l-90 7q-275 928 -284 1284h88q8 -295 236 -1106l14 -51l21 49q196 461 205 669h89q10 -210 210 -674l21 -47l15 50q239 814 247 1110h88q-10 -356 -296 -1284z" />
    <glyph glyph-name="X" unicode="X" horiz-adv-x="900" 
d="M722 0q-11 197 -271 619l-16 26l-16 -26q-260 -422 -271 -619h-88q11 231 317 717l6 11l-6 10q-33 51 -86 132q-217 333 -230 412h90q18 -64 214 -364l70 -109q53 81 71 109q195 300 214 364h89q-13 -79 -230 -412q-54 -84 -85 -132l-7 -10l6 -11q306 -486 317 -717h-88z
" />
    <glyph glyph-name="Y" unicode="Y" horiz-adv-x="868" 
d="M391 0v593l-4 6q-317 357 -327 689h88q10 -274 275 -597l15 -17l14 17q260 324 270 597h88q-10 -337 -326 -696l-5 -5v-587h-88z" />
    <glyph glyph-name="Z" unicode="Z" horiz-adv-x="840" 
d="M60 0v44q0 123 311 639q225 374 268 490l9 25h-552v88h646v-44q0 -113 -296 -605q-242 -400 -284 -525l-8 -24h608v-88h-702z" />
    <glyph glyph-name="bracketleft" unicode="[" horiz-adv-x="500" 
d="M100 1442v-1742h280v88h-192v1566h192v88h-280z" />
    <glyph glyph-name="backslash" unicode="\" horiz-adv-x="569" 
d="M100 1288l298 -1288h87l-298 1288h-87z" />
    <glyph glyph-name="bracketright" unicode="]" horiz-adv-x="546" 
d="M100 1442v-88h193v-1566h-193v-88h280v1742h-280z" />
    <glyph glyph-name="asciicircum" unicode="^" 
 />
    <glyph glyph-name="underscore" unicode="_" horiz-adv-x="1024" 
d="M0 -100h1024v-60h-1024v60z" />
    <glyph glyph-name="grave" unicode="`" horiz-adv-x="1024" 
d="M673 1079h-69l-330 202q-31 20 -46.5 40t-15.5 42q0 31 20.5 51t53.5 20q20 0 40.5 -12t55.5 -47z" />
    <glyph glyph-name="a" unicode="a" horiz-adv-x="764" 
d="M207 421q-59 -54 -59 -145q0 -123 74 -175q48 -33 117 -33q148 0 219 89l4 5v247l-4 5q-52 61 -191 61q-100 0 -160 -54zM136 61q-76 80 -76 215q0 129 85 208q84 79 222 79q103 0 169 -28l26 -11v28q0 105 -22 152q-26 54 -98 74q-33 10 -74 10q-100 0 -196 -45l-41 77
q114 55 236 55q54 0 99 -12q114 -32 156 -126q28 -65 28 -191v-548h-92q-10 22 -31 22q-8 0 -17 -4q-89 -36 -171 -36q-127 0 -203 81z" />
    <glyph glyph-name="b" unicode="b" horiz-adv-x="800" 
d="M156 720l-8 -5v-568l8 -6q106 -73 227 -73q76 0 132 54t73 144q38 199 -8 357q-45 158 -210 158q-120 0 -214 -61zM205 16q-10 4 -20 4q-20 0 -31 -18h-94v1349h88v-534l26 12q93 40 196 40q231 0 295 -222q51 -178 9 -397q-23 -121 -103 -196q-80 -74 -188 -74
q-93 0 -178 36z" />
    <glyph glyph-name="c" unicode="c" horiz-adv-x="767" 
d="M212 45q-85 65 -117 174q-47 166 -5 389q24 126 104 194q80 67 207 67q171 0 265 -127l-74 -48q-68 87 -191 87q-189 0 -225 -189q-38 -203 4 -348q23 -82 84 -129q62 -47 144 -47q116 0 180 84l74 -48q-91 -124 -254 -124q-111 0 -196 65z" />
    <glyph glyph-name="d" unicode="d" horiz-adv-x="800" 
d="M387 781q-172 -13 -214 -158q-46 -158 -8 -357q17 -90 73 -144t132 -54q121 0 227 73l8 6v577l-8 6q-79 52 -182 52q-14 0 -28 -1zM182 54q-80 75 -103 196q-42 219 9 397q59 204 292 222q17 1 35 1q87 0 164 -32l26 -11v524h88v-1349h-91q-9 19 -31 19q-9 0 -18 -3
q-93 -38 -183 -38q-108 0 -188 74z" />
    <glyph glyph-name="e" unicode="e" horiz-adv-x="773" 
d="M157 575q-11 -40 -15 -90l-2 -25l463 86l-1 17q-2 21 -5 43q-30 180 -192 180q-188 0 -248 -211zM188 46q-84 65 -111 175q-52 210 -4 378q37 131 124 202q87 72 208 72q111 0 185 -67t93 -186q12 -71 5 -117l-4 -31l-543 -101l2 -17q5 -57 19 -112q20 -81 80 -127
q60 -47 144 -47q120 0 196 75l67 -57q-102 -106 -263 -106q-114 0 -198 66z" />
    <glyph glyph-name="f" unicode="f" horiz-adv-x="600" 
d="M195 0v761h-135v87h135v187q0 102 19 160q34 103 133 145q57 23 123 23q43 0 84 -9l-24 -85q-30 6 -60 6q-49 0 -89 -16q-58 -25 -80 -82q-19 -47 -19 -142v-187h190v-87h-190v-761h-87z" />
    <glyph glyph-name="g" unicode="g" horiz-adv-x="800" 
d="M238 726q-56 -54 -73 -144q-38 -199 8 -357q45 -158 210 -158q119 0 214 61l8 5v568l-8 5q-106 74 -227 74q-76 0 -132 -54zM315 -503q-167 48 -183 238l88 6q7 -76 38 -113q25 -31 82 -47q35 -10 77 -10q50 0 90 16q65 28 84 69q14 29 14 106v269l-26 -12
q-93 -40 -196 -40q-231 0 -295 221q-51 178 -9 398q23 121 103 195q80 75 188 75q94 0 185 -39q9 -4 17 -4q13 0 23 10q4 4 7 11h91v-1084q0 -96 -23 -145q-34 -71 -130 -111q-56 -23 -123 -23q-54 0 -102 14z" />
    <glyph glyph-name="h" unicode="h" horiz-adv-x="764" 
d="M579 0v580q0 199 -174 199q-123 0 -247 -64l-10 -6v-709h-88v1349h88v-541l26 11q118 48 231 48q119 0 190 -78t71 -209v-580h-87z" />
    <glyph glyph-name="i" unicode="i" horiz-adv-x="300" 
d="M88 0h87v849h-87v-849zM80 1049q-20 20 -20 48q0 27 20 47q19 19 47 19q27 0 47 -19q20 -20 20 -47q0 -28 -20 -48q-20 -19 -47 -19q-28 0 -47 19z" />
    <glyph glyph-name="j" unicode="j" horiz-adv-x="300" 
d="M-170 -511l24 85q31 -6 60 -6q49 0 89 16q58 25 80 82q19 47 19 142v1035h88v-1035q0 -102 -20 -160q-34 -103 -133 -145q-56 -23 -123 -23q-43 0 -84 9zM98 1044q-19 19 -19 47t19 47q20 20 48 20q27 0 47 -20q20 -19 20 -47t-20 -47q-20 -20 -47 -20q-28 0 -48 20z" />
    <glyph glyph-name="k" unicode="k" horiz-adv-x="757" 
d="M593 0q-9 205 -198 421l-14 16l-14 -16q-212 -250 -219 -421h-88v1349h88v-1077l34 52q64 95 216 265q175 195 190 260h89q-11 -93 -213 -319l-25 -27l11 -12q222 -247 231 -491h-88z" />
    <glyph glyph-name="l" unicode="l" horiz-adv-x="337" 
d="M236 -20q-70 5 -116 50q-60 60 -60 171v1147h88v-1147q0 -75 34 -108q20 -21 53 -25z" />
    <glyph glyph-name="m" unicode="m" horiz-adv-x="1200" 
d="M992 0v589q0 190 -182 190q-116 0 -196 -51l-12 -8l4 -13q16 -53 16 -118v-589h-88v589q0 190 -155 190q-120 0 -222 -62l-9 -5v-712h-88v849h92q2 -5 5 -8q10 -10 24 -10q9 0 18 4q93 32 180 32q106 0 168 -61l11 -10l12 8q102 63 240 63q123 0 196 -76q73 -75 73 -202
v-589h-87z" />
    <glyph glyph-name="n" unicode="n" horiz-adv-x="751" 
d="M570 0v585q0 118 -47 162q-35 33 -105 33q-9 0 -19 -1q-124 -7 -242 -80l-9 -5v-694h-88v849h91q3 -10 10 -17q11 -12 28 -12q9 0 20 4q114 39 185 43q12 1 24 1q105 0 165 -57q74 -70 74 -226v-585h-87z" />
    <glyph glyph-name="o" unicode="o" horiz-adv-x="837" 
d="M166 592q-38 -203 4 -348q23 -82 84 -129q62 -47 144 -47q175 0 225 176q42 145 4 348q-17 87 -80 138q-64 51 -156 51q-189 0 -225 -189zM202 45q-85 65 -117 174q-47 166 -5 389q24 126 104 194q80 67 207 67q122 0 211 -72t111 -189q43 -223 -5 -389
q-33 -112 -115 -176q-82 -63 -195 -63q-111 0 -196 65z" />
    <glyph glyph-name="p" unicode="p" horiz-adv-x="800" 
d="M156 710l-8 -6v-568l8 -5q94 -61 214 -61q165 0 210 158q46 158 8 357q-17 90 -73 144t-132 54q-121 0 -227 -73zM60 -500v1349h91q3 -7 8 -11q9 -9 22 -9q8 0 17 3q91 39 185 39q108 0 188 -74q81 -75 103 -196q42 -220 -9 -397q-64 -222 -295 -222q-103 0 -196 40
l-26 12v-534h-88z" />
    <glyph glyph-name="q" unicode="q" horiz-adv-x="800" 
d="M238 730q-56 -54 -73 -144q-38 -199 8 -357q45 -158 210 -158q120 0 214 61l8 5v568l-8 6q-106 73 -227 73q-76 0 -132 -54zM605 -499v534l-26 -12q-93 -40 -196 -40q-231 0 -295 222q-51 177 -9 397q23 121 103 196q80 74 188 74q94 0 187 -39q8 -4 16 -4q13 0 21 9
q5 5 8 12h91v-1349h-88z" />
    <glyph glyph-name="r" unicode="r" horiz-adv-x="622" 
d="M60 0v849h88v-14q0 -15 9 -24q8 -9 21 -9q10 0 21 5q80 38 134 50q28 6 55 6q99 0 182 -88l-67 -57q-55 58 -115 58q-16 0 -35 -4q-81 -19 -196 -87l-9 -5v-680h-88z" />
    <glyph glyph-name="s" unicode="s" horiz-adv-x="653" 
d="M287 -20q-138 1 -227 75l60 64q65 -50 168 -51q93 0 147 58q45 48 41 115q-8 123 -186 194l-7 3q-90 37 -129 67q-66 53 -73 135q-6 74 38 134q45 61 118 79q40 9 76 9q97 0 186 -71l-58 -66q-62 49 -128 49q-26 0 -55 -7q-39 -9 -65 -40q-28 -35 -25 -79q5 -47 44 -76
q27 -21 104 -52l7 -3q229 -92 241 -271q7 -104 -65 -180q-81 -86 -209 -86h-3z" />
    <glyph glyph-name="t" unicode="t" horiz-adv-x="537" 
d="M261 19q-65 58 -65 175v557h-156v88h156v323h87v-323h169v-88h-169v-557q0 -78 36 -110q30 -26 89 -26h16l10 -87q-13 -1 -26 -1q-93 0 -147 49z" />
    <glyph glyph-name="u" unicode="u" horiz-adv-x="764" 
d="M126 53q-66 73 -66 205v589h88v-589q0 -190 164 -190q126 0 258 80l9 6v693h87v-849h-90q-3 14 -11 23q-10 10 -24 10q-8 0 -17 -4q-110 -47 -212 -47q-120 0 -186 73z" />
    <glyph glyph-name="v" unicode="v" horiz-adv-x="773" 
d="M338 0q-285 608 -298 847h88q12 -193 237 -714l18 -41l17 41q221 521 233 714h88q-13 -238 -293 -847h-90z" />
    <glyph glyph-name="w" unicode="w" horiz-adv-x="1270" 
d="M828 0l-191 630l-188 -630h-91q-285 608 -298 837h88q12 -177 226 -677l20 -48l197 674h92l199 -673l20 48q210 500 222 676h88q-13 -229 -293 -837h-91z" />
    <glyph glyph-name="x" unicode="x" horiz-adv-x="800" 
d="M633 0q-11 149 -229 386l-13 15l-14 -15q-218 -236 -229 -386h-88q10 184 258 452l12 12l-16 18q-242 251 -253 361h88q15 -79 228 -300l6 -6h15l6 6q213 221 228 300h89q-12 -110 -253 -361l-17 -18l12 -12q248 -268 258 -452h-88z" />
    <glyph glyph-name="y" unicode="y" horiz-adv-x="762" 
d="M180 -473l22 85q139 -35 226 -35q28 0 42 6q66 27 85 68q14 30 14 107v266l-27 -11q-87 -39 -186 -39q-214 0 -278 222q-29 103 -11 645l88 -3q-18 -530 8 -618q24 -85 69 -121q44 -37 124 -37q118 0 205 60l8 6v711h87v-1081q0 -96 -23 -146q-33 -70 -129 -110
q-29 -12 -81 -12q-96 0 -243 37z" />
    <glyph glyph-name="z" unicode="z" horiz-adv-x="742" 
d="M60 0v44q0 85 79 202q49 70 180 218q167 190 205 268l13 27h-441v88h535v-44q0 -79 -76 -189q-46 -66 -171 -208q-182 -205 -219 -292l-12 -26h498v-88h-591z" />
    <glyph glyph-name="braceleft" unicode="{" horiz-adv-x="700" 
d="M552 -334q-151 59 -210 167q-43 77 -43 193v337q0 103 -37 163q-46 72 -162 116v92q116 45 162 116q37 60 37 163v338q0 261 253 360l29 -83q-113 -45 -157 -116q-37 -59 -37 -161v-338q0 -209 -152 -309l-24 -16l24 -15q152 -101 152 -310v-337q0 -102 37 -162
q44 -71 157 -115z" />
    <glyph glyph-name="bar" unicode="|" horiz-adv-x="500" 
d="M200 -341h88v1907h-88v-1907z" />
    <glyph glyph-name="braceright" unicode="}" horiz-adv-x="700" 
d="M100 -255q113 44 157 115q37 60 37 162v337q0 209 153 310l23 15l-23 16q-153 100 -153 309v338q0 102 -37 161q-44 71 -157 116l30 83q252 -99 252 -360v-338q0 -103 38 -163q45 -71 161 -116v-92q-116 -44 -161 -116q-38 -60 -38 -163v-337q0 -116 -42 -193
q-60 -108 -210 -167z" />
    <glyph glyph-name="asciitilde" unicode="~" horiz-adv-x="659" 
d="M101 601q7 96 79 130q42 19 138 19h10q75 1 99 13q28 14 32 59h88q-6 -101 -81 -138q-43 -21 -143 -21h-15q-66 0 -90 -12q-25 -11 -29 -50h-88z" />
    <glyph glyph-name="exclamdown" unicode="&#xa1;" horiz-adv-x="672" 
 />
    <glyph glyph-name="cent" unicode="&#xa2;" horiz-adv-x="1139" 
 />
    <glyph glyph-name="sterling" unicode="&#xa3;" horiz-adv-x="954" 
d="M130 0v44q0 135 61 411q29 130 39 190l3 22h-133v87h142l1 19q1 56 -10 97l-7 30q-39 152 -32 249q8 106 85 164q77 57 214 59h10q272 -4 301 -204l-88 -7q-23 122 -218 123q-206 -1 -216 -141q-7 -83 29 -221l8 -31q12 -51 11 -118v-19h192v-87h-200l-2 -16
q-11 -69 -43 -215q-49 -222 -57 -328l-1 -20h525v-88h-614z" />
    <glyph glyph-name="currency" unicode="&#xa4;" 
d="M350 560q41 -40 99 -57q29 -8 58 -8t58 8q58 17 99 57q40 41 57 99q9 29 9 58t-9 58q-17 58 -57 99q-41 40 -100 57q-29 8 -58 8t-58 -9q-58 -17 -98 -56q-39 -40 -56 -98q-10 -30 -10 -60q0 -28 9 -56q16 -59 57 -100zM240 903l-118 118l80 81l118 -118q44 30 99 46
q44 14 89 14q41 0 83 -12q57 -17 102 -48l118 118l80 -81l-117 -117q31 -46 48 -102q12 -42 12 -85q0 -42 -12 -85q-17 -56 -48 -102l117 -117l-80 -81l-118 118q-45 -32 -101 -48q-42 -12 -85 -12q-42 0 -85 12q-57 16 -102 48l-118 -118l-80 81l118 117q-32 46 -48 103
q-12 42 -12 84q0 44 13 87q16 55 47 99z" />
    <glyph glyph-name="yen" unicode="&#xa5;" horiz-adv-x="1070" 
d="M473 0v348h-373v87h373v168h-373v88h292l-21 29q-221 306 -229 568h87q10 -271 271 -590l5 -7h28l6 7q255 320 265 590h88q-8 -262 -226 -568l-21 -29h288v-88h-359l-10 -12l-3 -11v-145h372v-87h-372v-348h-88z" />
    <glyph glyph-name="brokenbar" unicode="&#xa6;" 
d="M427 371h160v-789h-160v789zM427 1578h160v-789h-160v789z" />
    <glyph glyph-name="section" unicode="&#xa7;" 
d="M545 321q56 16 97 53q73 65 73 166q0 5 -1 10h-2q-1 14 -4 27q-22 61 -113 127q-59 29 -126 29q-78 0 -125 -44.5t-47 -117.5q0 -123 248 -250zM466 -346q113 6 185 69q72 64 72 165q0 125 -316 276q-123 64 -175.5 137t-52.5 177q0 148 89 237q67 65 170 82l-40 19
q-123 64 -175.5 137t-52.5 177q0 148 89 237q82 79 216 86q8 1 17 1h3q66 0 163 -16.5t97 -41.5v-194h-51q-5 81 -80 132q-70 47 -149 51h-15q-78 0 -125 -44.5t-47 -117.5q0 -132 287 -269q149 -67 204.5 -143.5t55.5 -187.5q0 -171 -101 -282q-47 -39 -99 -64
q108 -56 154 -118q55 -77 55 -187q0 -171 -101 -283q-124 -102 -277 -105v1q-6 -1 -13 -1h-3q-66 0 -163 16.5t-97 41.5v194h51q5 -81 80 -132q68 -45 145 -50z" />
    <glyph glyph-name="dieresis" unicode="&#xa8;" horiz-adv-x="1024" 
d="M223 1289l71 72q13 12 25 12q11 0 27 -14l69 -73q10 -14 10 -25q0 -13 -12 -27l-69 -75q-17 -17 -25 -17q-14 0 -25 12l-76 86q-9 12 -9 23q0 13 14 26zM588 1289l71 72q13 12 25 12q11 0 27 -13l69 -74q10 -14 10 -25q0 -13 -12 -26l-69 -76q-17 -17 -25 -17
q-14 0 -25 12l-76 87q-9 11 -9 22q0 13 14 26z" />
    <glyph glyph-name="copyright" unicode="&#xa9;" horiz-adv-x="1757" 
d="M679 273q-85 65 -117 174q-47 165 -5 389q24 126 104 193q81 68 207 68q171 0 265 -127l-74 -48q-68 87 -191 87q-189 0 -225 -189q-38 -203 4 -349q23 -81 85 -128q61 -47 143 -47q116 0 181 84l73 -48q-91 -124 -254 -124q-111 0 -196 65zM372 1133
q-200 -199 -200 -481q0 -281 200 -480q199 -200 480 -200q282 0 481 200q200 199 200 480q0 282 -200 481q-199 200 -481 200q-281 0 -480 -200zM321 121q-221 220 -221 531q0 312 221 532q220 221 531 221q312 0 532 -221q221 -220 221 -532q0 -311 -221 -531
q-220 -221 -532 -221q-311 0 -531 221z" />
    <glyph glyph-name="ordfeminine" unicode="&#xaa;" horiz-adv-x="648" 
 />
    <glyph glyph-name="guillemotleft" unicode="&#xab;" horiz-adv-x="944" 
d="M174 479l342 303h14v-37l-205 -266l205 -266v-37h-14zM487 479l342 303h14v-37l-205 -266l205 -266v-37h-14z" />
    <glyph glyph-name="logicalnot" unicode="&#xac;" 
d="M87 767h840v-491l-1 -1h-98v392h-741v100z" />
    <glyph glyph-name="registered" unicode="&#xae;" horiz-adv-x="1800" 
d="M690 521l23 6q159 45 282 89q74 26 100 94q14 38 14 106q0 100 -90 152q-68 38 -153 38h-176v-485zM1049 211q-8 61 -97 204q-28 44 -39 65l-8 13l-14 -5q-94 -29 -188 -55l-13 -3v-219h-88v883h264q133 0 227 -70q104 -77 104 -205q0 -225 -172 -286l-33 -12l9 -18
q18 -38 62 -115q73 -131 82 -177h-96zM372 1133q-200 -199 -200 -481q0 -281 200 -480q199 -200 480 -200q282 0 481 200q200 199 200 480q0 282 -200 481q-199 200 -481 200q-281 0 -480 -200zM321 121q-221 220 -221 531q0 312 221 532q220 221 531 221q312 0 532 -221
q221 -220 221 -532q0 -311 -221 -531q-220 -221 -532 -221q-311 0 -531 221z" />
    <glyph glyph-name="macron" unicode="&#xaf;" horiz-adv-x="670" 
 />
    <glyph glyph-name="degree" unicode="&#xb0;" horiz-adv-x="674" 
d="M339 1372q-86 0 -147.5 -61t-61.5 -148t61 -147t148 -60t147 60t60 147t-60.5 148t-146.5 61zM339 1442q115 0 196 -81.5t81 -196.5q0 -114 -82 -196t-197 -82q-117 0 -197 81t-80 197t81.5 197t197.5 81z" />
    <glyph glyph-name="plusminus" unicode="&#xb1;" 
 />
    <glyph glyph-name="uni00B2" unicode="&#xb2;" 
 />
    <glyph glyph-name="uni00B3" unicode="&#xb3;" 
 />
    <glyph glyph-name="acute" unicode="&#xb4;" horiz-adv-x="1024" 
d="M607 1375q35 35 55.5 47t40.5 12q33 0 53.5 -20t20.5 -51q0 -22 -15.5 -42t-46.5 -40l-330 -203h-69z" />
    <glyph glyph-name="mu" unicode="&#xb5;" horiz-adv-x="1180" 
 />
    <glyph glyph-name="paragraph" unicode="&#xb6;" horiz-adv-x="1024" 
d="M929 1435v-70h-127v-1365h-82v1365h-166v-1365h-84v738q-174 8 -275.5 102.5t-101.5 245.5q0 157 107.5 253t285.5 96h443z" />
    <glyph glyph-name="periodcentered" unicode="&#xb7;" horiz-adv-x="508" 
d="M145 740l82 84q15 14 29 14q13 0 31 -16l80 -86q12 -16 12 -29q0 -15 -14 -31l-80 -88q-20 -20 -29 -20q-16 0 -29 14l-88 101q-10 13 -10 26q0 15 16 31z" />
    <glyph glyph-name="periodcentered" unicode="&#x2219;" horiz-adv-x="508" 
d="M145 740l82 84q15 14 29 14q13 0 31 -16l80 -86q12 -16 12 -29q0 -15 -14 -31l-80 -88q-20 -20 -29 -20q-16 0 -29 14l-88 101q-10 13 -10 26q0 15 16 31z" />
    <glyph glyph-name="cedilla" unicode="&#xb8;" horiz-adv-x="1024" 
d="M360 -290q85 -52 152 -52q66 0 94.5 21.5t28.5 66.5t-49 64q-40 16 -102 16q-16 0 -34 -2l48 176h63l-37 -104q32 4 62 5q86 0 134 -40.5t48 -113.5q0 -76 -58.5 -120.5t-160.5 -44.5q-109 0 -189 32v96z" />
    <glyph glyph-name="uni00B9" unicode="&#xb9;" 
 />
    <glyph glyph-name="ordmasculine" unicode="&#xba;" horiz-adv-x="718" 
 />
    <glyph glyph-name="guillemotright" unicode="&#xbb;" horiz-adv-x="944" 
d="M115 176h-14v37l205 266l-205 266v37h14l342 -303zM428 176h-14v37l205 266l-205 266v37h14l342 -303z" />
    <glyph glyph-name="onequarter" unicode="&#xbc;" horiz-adv-x="1708" 
 />
    <glyph glyph-name="onehalf" unicode="&#xbd;" horiz-adv-x="1964" 
 />
    <glyph glyph-name="threequarters" unicode="&#xbe;" horiz-adv-x="1708" 
 />
    <glyph glyph-name="questiondown" unicode="&#xbf;" horiz-adv-x="748" 
 />
    <glyph glyph-name="Agrave" unicode="&#xc0;" horiz-adv-x="1000" 
d="M473 1134q-127 -336 -209 -608l-8 -24h471l-7 25q-84 271 -212 607l-18 47zM838 0q-5 135 -81 401l-4 13h-522l-4 -13q-74 -266 -79 -401h-88q12 353 384 1288h91q378 -934 390 -1288h-87zM509 1420l-131 211h103l130 -211h-102z" />
    <glyph glyph-name="Aacute" unicode="&#xc1;" horiz-adv-x="1000" 
d="M473 1134q-127 -337 -209 -608l-8 -24h471l-7 25q-84 271 -212 607l-18 47zM838 0q-5 135 -81 401l-4 13h-522l-4 -13q-74 -266 -79 -401h-88q12 353 384 1288h91q378 -934 390 -1288h-87zM373 1420l130 211h103l-130 -211h-103z" />
    <glyph glyph-name="Acircumflex" unicode="&#xc2;" horiz-adv-x="1000" 
d="M473 1134q-127 -336 -209 -608l-8 -24h471l-7 24q-84 271 -212 608l-18 47zM838 0q-5 135 -81 401l-4 13h-522l-4 -13q-74 -266 -79 -401h-88q12 353 384 1288h91q378 -934 390 -1288h-87zM251 1420l130 211h103l-130 -211h-103zM632 1420l-131 211h103l131 -211h-103z
" />
    <glyph glyph-name="Atilde" unicode="&#xc3;" horiz-adv-x="1000" 
d="M473 1134q-127 -337 -209 -608l-8 -24h471l-7 24q-84 271 -212 608l-18 47zM838 0q-5 135 -81 401l-4 13h-522l-4 -13q-74 -265 -79 -401h-88q12 354 384 1288h91q378 -934 390 -1288h-87zM262 1423q7 96 80 130q41 20 138 20h8q76 0 101 12q28 14 32 60h88
q-7 -102 -82 -139q-43 -21 -143 -21h-13q-68 0 -92 -11q-25 -12 -29 -51h-88z" />
    <glyph glyph-name="Adieresis" unicode="&#xc4;" horiz-adv-x="1000" 
d="M473 1134q-127 -337 -209 -608l-8 -24h471l-7 25q-84 271 -212 607l-18 47zM838 0q-5 135 -81 401l-4 13h-522l-4 -13q-74 -266 -79 -401h-88q12 354 384 1288h91q378 -934 390 -1288h-87zM592 1547q-20 20 -20 48q0 27 20 47t47 20q28 0 48 -20q19 -20 19 -47
q0 -28 -19 -48q-20 -19 -48 -19q-27 0 -47 19zM299 1547q-20 20 -20 48q0 27 20 47q19 20 47 20t47 -20q20 -20 20 -47q0 -28 -20 -48q-19 -19 -47 -19t-47 19z" />
    <glyph glyph-name="Aring" unicode="&#xc5;" horiz-adv-x="1000" 
d="M438 1585q-22 -23 -22 -54q0 -32 22 -55q23 -22 55 -22q31 0 54 22q23 23 23 55q0 31 -23 54t-54 23q-32 0 -55 -23zM398 1436q-39 40 -39 95t39 94q40 39 95 39t94 -39t39 -94t-39 -95q-39 -39 -94 -39t-95 39zM473 1134q-127 -337 -209 -608l-8 -24h471l-7 24
q-84 272 -212 608l-18 47zM838 0q-5 135 -81 401l-4 13h-522l-4 -13q-74 -266 -79 -401h-88q12 358 384 1306h91q378 -945 390 -1306h-87z" />
    <glyph glyph-name="AE" unicode="&#xc6;" horiz-adv-x="1400" 
d="M592 1123q-170 -322 -284 -591l-11 -26h415l-93 669zM783 0l-58 418h-463l-5 -12q-102 -265 -109 -402h-88q16 368 509 1263l12 22h643v-87h-520l59 -422h381v-87h-369l84 -605h444v-88h-520z" />
    <glyph glyph-name="Ccedilla" unicode="&#xc7;" horiz-adv-x="1399" 
 />
    <glyph glyph-name="Egrave" unicode="&#xc8;" horiz-adv-x="739" 
d="M60 1289v-1289h615v88h-527v605h438v87h-438v422h482v87h-570zM274 1631l130 -211h103l-131 211h-102z" />
    <glyph glyph-name="Eacute" unicode="&#xc9;" horiz-adv-x="757" 
d="M60 1289v-1289h615v88h-527v605h438v87h-438v422h482v87h-570zM383 1631l-130 -211h102l131 211h-103z" />
    <glyph glyph-name="Ecircumflex" unicode="&#xca;" horiz-adv-x="748" 
d="M60 1289v-1289h615v88h-527v605h438v87h-438v422h482v87h-570zM365 1631l131 -211h103l-131 211h-103zM246 1631l-131 -211h103l130 211h-102z" />
    <glyph glyph-name="Edieresis" unicode="&#xcb;" horiz-adv-x="745" 
d="M60 1289v-1289h615v88h-527v605h438v87h-438v422h482v87h-570zM467 1547q-20 20 -20 48q0 27 20 47q19 20 47 20t47 -20q20 -20 20 -47q0 -28 -20 -48q-19 -19 -47 -19t-47 19zM173 1547q-19 20 -19 48q0 27 19 47q20 20 48 20q27 0 47 -20t20 -47q0 -28 -20 -48
q-20 -19 -47 -19q-28 0 -48 19z" />
    <glyph glyph-name="Igrave" unicode="&#xcc;" horiz-adv-x="368" 
d="M104 0h88v1288h-88v-1288zM50 1630l131 -210h102l-130 210h-103z" />
    <glyph glyph-name="Iacute" unicode="&#xcd;" horiz-adv-x="368" 
d="M105 0h88v1288h-88v-1288zM181 1630l-131 -210h103l130 210h-102z" />
    <glyph glyph-name="Icircumflex" unicode="&#xce;" horiz-adv-x="558" 
d="M193 0h88v1288h-88v-1288zM250 1630l131 -210h103l-131 210h-103zM131 1630l-131 -210h103l130 210h-102z" />
    <glyph glyph-name="Idieresis" unicode="&#xcf;" horiz-adv-x="555" 
d="M170 0h87v1288h-87v-1288zM313 1547q-20 20 -20 47q0 28 20 48q19 19 47 19t47 -19q20 -20 20 -48q0 -27 -20 -47q-19 -20 -47 -20t-47 20zM20 1547q-20 20 -20 47q0 28 20 48q19 19 47 19t47 -19q20 -20 20 -48q0 -27 -20 -47q-19 -20 -47 -20t-47 20z" />
    <glyph glyph-name="Eth" unicode="&#xd0;" horiz-adv-x="1518" 
 />
    <glyph glyph-name="Ntilde" unicode="&#xd1;" horiz-adv-x="1554" 
 />
    <glyph glyph-name="Ograve" unicode="&#xd2;" horiz-adv-x="951" 
d="M233 1174q-55 -42 -73 -139q-13 -66 -13 -392q-1 -338 17 -399q25 -88 81 -128q68 -48 204 -48q139 0 203 45q54 38 81 131q17 61 17 399q-1 326 -14 392q-19 101 -88 146q-68 44 -206 44q-144 0 -209 -51zM203 37q-87 56 -124 182q-21 74 -19 434q2 338 14 399
q25 135 114 198t254 63q331 0 380 -261q12 -61 14 -399q2 -360 -19 -434q-37 -127 -123 -183t-245 -56q-158 0 -246 57zM437 1421l-130 210h103l130 -210h-103z" />
    <glyph glyph-name="Oacute" unicode="&#xd3;" horiz-adv-x="951" 
d="M233 1174q-55 -42 -73 -139q-13 -66 -13 -392q-1 -338 16 -399q26 -88 82 -128q68 -48 204 -48q139 0 203 45q54 38 81 131q17 61 17 399q-1 326 -14 392q-19 101 -88 146q-68 44 -206 44q-144 0 -209 -51zM203 37q-87 56 -124 182q-21 74 -19 434q2 338 14 399
q25 135 114 198t254 63q331 0 380 -261q12 -61 14 -399q2 -360 -19 -434q-37 -127 -123 -183t-245 -56q-158 0 -246 57zM330 1421l131 210h103l-131 -210h-103z" />
    <glyph glyph-name="Ocircumflex" unicode="&#xd4;" horiz-adv-x="951" 
d="M233 1174q-55 -42 -73 -139q-13 -66 -13 -392q-1 -338 17 -399q25 -88 81 -128q68 -48 204 -48q139 0 203 45q54 38 81 131q17 61 17 399q-1 326 -14 392q-19 101 -88 146q-68 44 -206 44q-144 0 -209 -51zM203 37q-87 56 -124 182q-21 74 -19 434q2 338 14 399
q25 135 114 198t254 63q331 0 380 -261q12 -61 14 -399q2 -360 -19 -434q-37 -127 -123 -183t-245 -56q-158 0 -246 57zM206 1421l131 210h103l-131 -210h-103zM587 1421l-130 210h102l131 -210h-103z" />
    <glyph glyph-name="Otilde" unicode="&#xd5;" horiz-adv-x="948" 
d="M233 1174q-55 -42 -73 -139q-13 -66 -13 -392q-1 -338 17 -399q25 -88 81 -128q68 -48 204 -48q139 0 203 45q54 38 81 131q17 61 17 399q-1 326 -14 392q-19 101 -88 146q-68 44 -206 44q-144 0 -209 -51zM203 37q-87 56 -124 182q-21 74 -19 434q2 338 14 399
q25 135 114 198t254 63q331 0 380 -261q12 -61 14 -399q2 -360 -19 -434q-37 -127 -123 -183t-245 -56q-158 0 -246 57zM225 1424q7 96 79 130q42 19 139 20h7q77 0 101 12q28 14 32 60h88q-6 -102 -81 -139q-43 -21 -143 -21h-14q-67 0 -91 -12q-25 -11 -29 -50h-88z" />
    <glyph glyph-name="Odieresis" unicode="&#xd6;" horiz-adv-x="954" 
d="M233 1174q-55 -42 -73 -139q-13 -66 -13 -392q-1 -338 17 -399q25 -88 81 -128q68 -48 204 -48q139 0 203 45q54 38 81 131q17 61 17 399q-1 326 -14 392q-19 101 -88 146q-68 44 -206 44q-144 0 -209 -51zM203 37q-87 56 -124 182q-21 74 -19 434q2 338 14 399
q25 135 114 198t254 63q331 0 380 -261q12 -61 14 -399q2 -360 -19 -434q-37 -127 -123 -183t-245 -56q-158 0 -246 57zM547 1548q-19 20 -19 48q0 27 19 47q20 20 48 20q27 0 47 -20t20 -47q0 -28 -20 -48q-20 -19 -47 -19q-28 0 -48 19zM254 1548q-19 20 -19 48
q0 27 19 47q20 20 48 20q27 0 47 -20q19 -20 19 -47q0 -28 -19 -48q-20 -19 -47 -19q-28 0 -48 19z" />
    <glyph glyph-name="multiply" unicode="&#xd7;" horiz-adv-x="843" 
d="M666 1028l-252 -252l-252 252l-62 -62l252 -252l-252 -252l62 -62l252 252l252 -252l62 62l-252 252l252 252z" />
    <glyph glyph-name="Oslash" unicode="&#xd8;" horiz-adv-x="1058" 
d="M308 1174q-54 -42 -72 -139q-23 -118 -11 -589l1 -55l32 45q87 119 293 358q173 200 239 289l6 9l-4 10q-56 123 -274 123q-144 0 -210 -51zM787 936q-52 -64 -169 -199q-282 -327 -375 -483l-4 -7l2 -8q26 -86 81 -124q68 -47 203 -47q139 0 203 45q54 38 81 131
q33 117 11 681l-2 50zM204 111l-20 30l-13 -35q-20 -56 -23 -105h-88q6 114 85 258l3 5l-1 6q-52 493 3 782q25 135 114 198t254 63q223 0 317 -116l17 -22l14 25q28 52 33 90h88q-8 -83 -90 -206l-5 -7l4 -14q2 -9 2 -11q12 -61 14 -399q2 -360 -19 -434
q-37 -127 -123 -183t-245 -56q-231 0 -321 131z" />
    <glyph glyph-name="Ugrave" unicode="&#xd9;" horiz-adv-x="862" 
d="M211 46q-90 66 -121 173q-30 104 -15 1072h88q-15 -952 11 -1047q25 -86 99 -134q65 -42 143 -42q87 0 151 47t88 129q26 95 12 1047h88q14 -967 -16 -1072q-31 -109 -119 -174t-204 -65q-115 0 -205 66zM452 1422l-130 210h102l131 -210h-103z" />
    <glyph glyph-name="Uacute" unicode="&#xda;" horiz-adv-x="859" 
d="M201 46q-90 66 -121 173q-30 105 -15 1072h88q-15 -952 11 -1047q25 -86 99 -134q65 -42 143 -42q87 0 151 47t88 129q26 95 12 1047h88q14 -968 -16 -1072q-31 -109 -119 -174t-204 -65q-115 0 -205 66zM252 1422l130 210h103l-131 -210h-102z" />
    <glyph glyph-name="Ucircumflex" unicode="&#xdb;" horiz-adv-x="846" 
d="M201 46q-90 66 -121 173q-30 104 -15 1072h88q-15 -952 11 -1047q25 -86 99 -134q65 -42 143 -42q87 0 151 47t88 129q26 95 12 1047h88q14 -968 -16 -1072q-31 -109 -119 -174t-204 -65q-115 0 -205 66zM163 1422l130 210h103l-130 -210h-103zM544 1422l-131 210h103
l130 -210h-102z" />
    <glyph glyph-name="Udieresis" unicode="&#xdc;" horiz-adv-x="853" 
d="M201 46q-90 66 -121 173q-30 104 -15 1072h88q-15 -952 11 -1047q25 -86 99 -134q65 -42 143 -42q87 0 151 47t88 129q26 95 12 1047h88q14 -968 -16 -1072q-31 -109 -119 -174t-204 -65q-115 0 -205 66zM504 1549q-20 20 -20 47q0 28 20 48q20 19 47 19q28 0 48 -19
q19 -20 19 -48q0 -27 -19 -47q-20 -20 -48 -20q-27 0 -47 20zM211 1549q-20 20 -20 47q0 28 20 48q19 19 47 19t47 -19q20 -20 20 -48q0 -27 -20 -47q-19 -20 -47 -20t-47 20z" />
    <glyph glyph-name="Yacute" unicode="&#xdd;" horiz-adv-x="1233" 
 />
    <glyph glyph-name="Thorn" unicode="&#xde;" horiz-adv-x="1120" 
 />
    <glyph glyph-name="germandbls" unicode="&#xdf;" horiz-adv-x="1251" 
 />
    <glyph glyph-name="agrave" unicode="&#xe0;" horiz-adv-x="754" 
d="M207 421q-59 -54 -59 -145q0 -123 74 -175q48 -33 117 -33q148 0 219 89l4 5v247l-4 5q-52 61 -191 61q-100 0 -160 -54zM136 61q-76 80 -76 215q0 129 85 208q84 79 222 79q103 0 169 -28l26 -11v28q0 105 -22 152q-26 54 -98 74q-33 10 -75 10q-99 0 -195 -45l-41 77
q114 55 236 55q54 0 99 -12q114 -32 156 -126q28 -65 28 -191v-548h-92q-9 22 -31 22q-8 0 -17 -4q-89 -36 -171 -36q-127 0 -203 81zM397 1044l-131 211h103l130 -211h-102z" />
    <glyph glyph-name="aacute" unicode="&#xe1;" horiz-adv-x="748" 
d="M197 421q-59 -54 -59 -145q0 -123 74 -175q48 -33 117 -33q148 0 219 89l4 5v247l-4 5q-52 61 -191 61q-100 0 -160 -54zM126 61q-76 80 -76 215q0 129 85 208q84 79 222 79q103 0 169 -28l26 -11v28q0 105 -22 152q-26 54 -98 74q-33 10 -75 10q-100 0 -195 -45l-41 77
q114 55 236 55q54 0 98 -12q115 -32 157 -126q28 -65 28 -191v-548h-92q-10 22 -31 22q-8 0 -17 -4q-89 -36 -171 -36q-127 0 -203 81zM188 1044l131 211h102l-130 -211h-103z" />
    <glyph glyph-name="acircumflex" unicode="&#xe2;" horiz-adv-x="754" 
d="M197 421q-59 -54 -59 -145q0 -123 74 -175q48 -33 117 -33q148 0 219 89l4 5v247l-4 5q-52 61 -191 61q-100 0 -160 -54zM126 61q-76 80 -76 215q0 129 85 208q84 79 222 79q103 0 169 -28l26 -11v28q0 105 -22 152q-26 54 -98 74q-33 10 -75 10q-100 0 -195 -45l-41 77
q114 55 236 55q54 0 98 -12q115 -32 157 -126q28 -65 28 -191v-548h-92q-10 22 -31 22q-8 0 -17 -4q-89 -36 -171 -36q-127 0 -203 81zM103 1044l131 211h102l-130 -211h-103zM484 1044l-131 211h103l131 -211h-103z" />
    <glyph glyph-name="atilde" unicode="&#xe3;" horiz-adv-x="745" 
d="M207 421q-59 -54 -59 -145q0 -123 74 -175q48 -33 117 -33q148 0 219 89l4 5v247l-4 5q-52 61 -191 61q-100 0 -160 -54zM136 61q-76 80 -76 215q0 129 85 208q84 79 222 79q103 0 169 -28l26 -11v28q0 105 -22 152q-26 54 -98 74q-33 10 -75 10q-100 0 -195 -45l-41 77
q114 55 236 55q54 0 99 -12q114 -32 156 -126q28 -65 28 -191v-548h-92q-10 22 -31 22q-8 0 -17 -4q-89 -36 -171 -36q-127 0 -203 81zM115 1034q7 95 80 129q41 20 137 20h10q76 1 100 12q28 14 32 60h88q-6 -101 -82 -138q-43 -21 -142 -22h-16q-66 0 -90 -11
q-25 -12 -29 -50h-88z" />
    <glyph glyph-name="adieresis" unicode="&#xe4;" horiz-adv-x="757" 
d="M207 421q-59 -54 -59 -145q0 -123 74 -175q48 -33 117 -33q148 0 219 89l4 5v247l-4 5q-52 61 -191 61q-100 0 -160 -54zM136 61q-76 80 -76 215q0 129 85 208q84 79 222 79q103 0 169 -28l26 -11v28q0 105 -22 152q-26 54 -98 74q-33 10 -75 10q-100 0 -195 -45l-41 77
q114 55 236 55q54 0 98 -12q115 -32 157 -126q28 -65 28 -191v-548h-92q-10 22 -31 22q-8 0 -17 -4q-89 -36 -171 -36q-127 0 -203 81zM454 1141q-19 19 -19 47t19 47q20 20 48 20q27 0 47 -20q20 -19 20 -47t-20 -47q-20 -20 -47 -20q-28 0 -48 20zM161 1141q-20 19 -20 47
t20 47q20 20 47 20q28 0 48 -20q19 -19 19 -47t-19 -47q-20 -20 -48 -20q-27 0 -47 20z" />
    <glyph glyph-name="aring" unicode="&#xe5;" horiz-adv-x="757" 
d="M207 421q-59 -54 -59 -145q0 -123 74 -175q48 -33 117 -33q148 0 219 89l4 5v247l-4 5q-52 61 -191 61q-100 0 -160 -54zM136 61q-76 80 -76 215q0 129 85 208q84 79 222 79q103 0 169 -28l26 -11v28q-1 110 -30 161q-30 51 -100 65q-22 4 -46 4q-107 0 -209 -72l-54 69
q127 91 263 91q32 0 63 -6q130 -25 176 -143q25 -64 25 -175v-548h-91q-3 10 -8 15q-9 9 -21 9q-8 0 -15 -4q-82 -38 -176 -38q-127 0 -203 81zM316 1176q-22 -22 -22 -54t22 -55q23 -22 54 -22q32 0 55 22q22 23 22 55t-22 54q-23 23 -55 23q-31 0 -54 -23zM276 1028
q-39 39 -39 94t39 94t94 39q56 0 95 -39t39 -94t-39 -94q-39 -40 -95 -40q-55 0 -94 40z" />
    <glyph glyph-name="ae" unicode="&#xe6;" horiz-adv-x="1266" 
d="M639 565q-12 -40 -16 -90l-2 -25l463 86l-1 17q-2 21 -5 43q-29 180 -192 180q-187 0 -247 -211zM207 411q-59 -54 -59 -145q0 -123 74 -175q48 -33 117 -33q142 0 215 84l18 24q-8 20 -14 45q-25 104 -25 206v11l-9 5q-52 32 -157 32q-100 0 -160 -54zM633 69l-13 14
l-14 -13q-101 -100 -267 -100q-127 0 -203 81q-76 80 -76 215q0 129 85 208q84 79 222 79q91 0 153 -22l20 -7l4 21q5 25 10 44l5 15v4q-16 138 -127 160q-22 4 -46 4q-107 0 -209 -72l-54 69q127 91 263 91q33 0 63 -6q106 -21 156 -103l14 -22l17 20q95 114 250 114
q112 0 185 -67q74 -67 94 -186q11 -69 5 -117l-5 -31l-542 -101l1 -17q6 -57 19 -112q20 -81 80 -127q60 -47 144 -47q121 0 196 75l67 -57q-102 -106 -263 -106q-143 0 -234 99z" />
    <glyph glyph-name="ccedilla" unicode="&#xe7;" horiz-adv-x="905" 
 />
    <glyph glyph-name="egrave" unicode="&#xe8;" horiz-adv-x="800" 
d="M167 575q-11 -40 -15 -90l-2 -25l463 86l-1 17q-2 21 -5 43q-29 180 -192 180q-188 0 -248 -211zM198 46q-84 65 -111 175q-52 210 -4 378q37 131 124 202q87 72 208 72q111 0 185 -67t93 -186q12 -69 5 -117l-4 -31l-543 -101l2 -17q5 -56 19 -112q20 -81 80 -127
q60 -47 144 -47q120 0 196 75l67 -57q-102 -106 -263 -106q-114 0 -198 66zM411 1044l-130 211h103l130 -211h-103z" />
    <glyph glyph-name="eacute" unicode="&#xe9;" horiz-adv-x="800" 
d="M167 575q-11 -40 -15 -90l-2 -25l463 86l-1 17q-2 21 -5 43q-30 180 -192 180q-188 0 -248 -211zM198 46q-84 65 -111 175q-52 210 -4 378q37 131 124 202q87 72 208 72q111 0 185 -67t93 -186q12 -69 5 -117l-4 -31l-543 -101l2 -17q5 -57 19 -112q20 -81 80 -127
q60 -47 144 -47q120 0 196 75l67 -57q-102 -106 -263 -106q-114 0 -198 66zM232 1044l130 211h103l-131 -211h-102z" />
    <glyph glyph-name="ecircumflex" unicode="&#xea;" horiz-adv-x="800" 
d="M167 575q-11 -40 -15 -90l-2 -25l463 86l-1 17q-2 21 -5 43q-29 180 -192 180q-188 0 -248 -211zM198 46q-84 65 -111 175q-52 209 -4 378q37 131 124 202q87 72 208 72q111 0 185 -67t93 -186q12 -70 5 -117l-4 -31l-543 -101l2 -17q5 -56 19 -112q20 -81 80 -127
q60 -47 143 -47q121 0 197 75l67 -57q-102 -106 -264 -106q-113 0 -197 66zM139 1044l130 211h103l-130 -211h-103zM520 1044l-131 211h103l131 -211h-103z" />
    <glyph glyph-name="edieresis" unicode="&#xeb;" horiz-adv-x="800" 
d="M167 575q-11 -40 -15 -90l-2 -25l463 86l-1 17q-2 21 -5 43q-30 180 -192 180q-188 0 -248 -211zM198 46q-84 65 -111 175q-52 209 -4 378q37 131 124 202q87 72 208 72q111 0 185 -67t93 -186q12 -71 5 -117l-4 -31l-543 -101l2 -17q5 -56 19 -112q20 -81 80 -127
q60 -47 144 -47q120 0 196 75l67 -57q-102 -106 -263 -106q-114 0 -198 66zM480 1141q-20 19 -20 47t20 47q20 20 47 20q28 0 48 -20q19 -19 19 -47t-19 -47q-20 -20 -48 -20q-27 0 -47 20zM187 1141q-20 19 -20 47t20 47q20 20 47 20q28 0 48 -20q19 -19 19 -47t-19 -47
q-20 -20 -48 -20q-27 0 -47 20z" />
    <glyph glyph-name="igrave" unicode="&#xec;" horiz-adv-x="353" 
d="M113 0h88v849h-88v-849zM100 1257l131 -211h102l-130 211h-103z" />
    <glyph glyph-name="iacute" unicode="&#xed;" horiz-adv-x="356" 
d="M103 0h88v849h-88v-849zM171 1257l-131 -211h103l130 211h-102z" />
    <glyph glyph-name="icircumflex" unicode="&#xee;" horiz-adv-x="400" 
d="M108 0h88v849h-88v-849zM160 1257l131 -211h103l-131 211h-103zM41 1257l-131 -211h103l130 211h-102z" />
    <glyph glyph-name="idieresis" unicode="&#xef;" horiz-adv-x="451" 
d="M110 0h87v849h-87v-849zM253 1142q-20 20 -20 48q0 27 20 47q19 20 47 20t47 -20q20 -20 20 -47q0 -28 -20 -48q-19 -19 -47 -19t-47 19zM-40 1142q-20 20 -20 48q0 27 20 47q19 20 47 20t47 -20q20 -20 20 -47q0 -28 -20 -48q-19 -19 -47 -19t-47 19z" />
    <glyph glyph-name="eth" unicode="&#xf0;" horiz-adv-x="1139" 
 />
    <glyph glyph-name="ntilde" unicode="&#xf1;" horiz-adv-x="1108" 
 />
    <glyph glyph-name="ograve" unicode="&#xf2;" horiz-adv-x="837" 
d="M166 592q-38 -203 4 -348q23 -82 84 -129q62 -47 144 -47q175 0 226 176q41 145 3 348q-17 87 -80 138q-64 51 -156 51q-189 0 -225 -189zM202 45q-85 65 -117 174q-47 166 -5 389q24 126 104 194q80 67 207 67q122 0 211 -72t111 -189q43 -223 -5 -389
q-33 -112 -115 -176q-82 -63 -195 -63q-111 0 -196 65zM435 1044l-130 211h102l131 -211h-103z" />
    <glyph glyph-name="oacute" unicode="&#xf3;" horiz-adv-x="831" 
d="M166 592q-38 -203 4 -348q23 -82 84 -129q62 -47 144 -47q175 0 225 176q42 145 4 348q-17 87 -80 138q-64 51 -156 51q-189 0 -225 -189zM202 45q-85 65 -117 174q-47 166 -5 389q24 126 104 194q80 67 207 67q122 0 211 -72t111 -189q43 -223 -5 -389
q-33 -112 -115 -176q-82 -63 -195 -63q-111 0 -196 65zM253 1044l131 211h102l-130 -211h-103z" />
    <glyph glyph-name="ocircumflex" unicode="&#xf4;" horiz-adv-x="828" 
d="M166 592q-38 -203 4 -348q23 -82 84 -129q62 -47 144 -47q175 0 225 176q42 145 4 348q-17 87 -80 138q-64 51 -156 51q-189 0 -225 -189zM202 45q-85 65 -117 174q-47 166 -5 389q24 126 104 194q80 67 207 67q122 0 211 -72t111 -189q43 -223 -5 -389
q-33 -112 -115 -176q-82 -63 -195 -63q-111 0 -196 65zM155 1044l130 211h103l-130 -211h-103zM536 1044l-131 211h103l130 -211h-102z" />
    <glyph glyph-name="otilde" unicode="&#xf5;" horiz-adv-x="828" 
d="M166 592q-38 -203 4 -348q23 -82 84 -129q62 -47 144 -47q175 0 226 176q41 145 3 348q-17 87 -80 138q-64 51 -156 51q-189 0 -225 -189zM202 45q-85 65 -117 174q-47 166 -5 389q24 126 104 194q80 67 207 67q122 0 211 -72t111 -189q43 -223 -5 -389
q-33 -112 -115 -176q-82 -63 -195 -63q-111 0 -196 65zM173 1034q7 95 80 129q41 20 138 20h9q76 1 100 12q28 14 32 60h88q-7 -102 -82 -138q-43 -21 -142 -22h-16q-66 0 -90 -11q-24 -12 -29 -50h-88z" />
    <glyph glyph-name="odieresis" unicode="&#xf6;" horiz-adv-x="834" 
d="M166 592q-38 -203 4 -348q23 -82 84 -129q62 -47 144 -47q175 0 225 176q42 145 4 348q-17 87 -80 138q-64 51 -156 51q-189 0 -225 -189zM202 45q-85 65 -117 174q-47 166 -5 389q24 126 104 194q80 67 207 67q122 0 211 -72t111 -189q43 -223 -5 -389
q-33 -112 -115 -176q-82 -63 -195 -63q-111 0 -196 65zM496 1141q-20 19 -20 47t20 47q19 20 47 20t47 -20q20 -19 20 -47t-20 -47q-19 -20 -47 -20t-47 20zM203 1141q-20 19 -20 47t20 47q19 20 47 20t47 -20q20 -19 20 -47t-20 -47q-19 -20 -47 -20t-47 20z" />
    <glyph glyph-name="divide" unicode="&#xf7;" horiz-adv-x="856" 
d="M96 709h594v88h-594v-88zM346 972q-20 20 -20 47q0 28 20 48q19 19 47 19t47 -19q20 -20 20 -48q0 -27 -20 -47q-19 -19 -47 -19t-47 19zM346 440q-20 19 -20 47t20 47q19 20 47 20t47 -20q20 -19 20 -47t-20 -47q-19 -20 -47 -20t-47 20z" />
    <glyph glyph-name="oslash" unicode="&#xf8;" horiz-adv-x="853" 
d="M169 599q-32 -171 -2 -325l8 -41l26 33q51 67 174 205q136 154 190 230l10 13l-12 12q-67 63 -169 63q-189 0 -225 -190zM599 600q-48 -61 -159 -186q-147 -167 -205 -249l-9 -14l11 -11q67 -66 165 -66q175 0 226 176q39 136 4 341l-7 43zM60 -20q6 72 56 160l5 9l-5 10
q-17 32 -27 67q-48 165 -6 389q24 126 105 194q80 67 206 67q121 0 210 -70l19 -15l10 22q16 35 20 63h87q-6 -67 -55 -151l-5 -9l5 -9q23 -44 32 -92q42 -224 -5 -389q-33 -113 -115 -176q-82 -64 -195 -64q-117 0 -204 72l-19 16l-11 -24q-16 -39 -20 -70h-88z" />
    <glyph glyph-name="ugrave" unicode="&#xf9;" horiz-adv-x="754" 
d="M126 53q-66 73 -66 205v589h88v-589q0 -190 164 -190q126 0 258 80l9 6v693h87v-849h-90q-3 14 -11 23q-10 10 -24 10q-8 0 -17 -4q-109 -47 -212 -47q-120 0 -186 73zM390 1044l-130 211h103l130 -211h-103z" />
    <glyph glyph-name="uacute" unicode="&#xfa;" horiz-adv-x="761" 
d="M126 53q-66 73 -66 205v589h88v-589q0 -190 164 -190q126 0 258 80l9 6v693h87v-849h-90q-3 14 -11 23q-10 10 -24 10q-8 0 -17 -4q-109 -47 -212 -47q-120 0 -186 73zM244 1044l131 211h103l-131 -211h-103z" />
    <glyph glyph-name="ucircumflex" unicode="&#xfb;" horiz-adv-x="764" 
d="M126 53q-66 73 -66 205v589h88v-589q0 -190 164 -190q126 0 258 80l9 6v693h87v-849h-90q-3 14 -11 23q-10 10 -24 10q-8 0 -17 -4q-109 -47 -212 -47q-120 0 -186 73zM121 1044l131 211h103l-131 -211h-103zM502 1044l-130 211h102l131 -211h-103z" />
    <glyph glyph-name="udieresis" unicode="&#xfc;" horiz-adv-x="773" 
d="M126 53q-66 73 -66 205v589h88v-589q0 -190 164 -190q126 0 258 80l9 6v693h87v-849h-90q-3 15 -11 23q-10 10 -24 10q-8 0 -17 -4q-109 -47 -212 -47q-120 0 -186 73zM462 1141q-19 19 -19 47t19 47q20 20 48 20q27 0 47 -20q20 -19 20 -47t-20 -47q-20 -20 -47 -20
q-28 0 -48 20zM169 1141q-19 19 -19 47t19 47q20 20 48 20q27 0 47 -20q20 -19 20 -47t-20 -47q-20 -20 -47 -20q-28 0 -48 20z" />
    <glyph glyph-name="yacute" unicode="&#xfd;" horiz-adv-x="868" 
 />
    <glyph glyph-name="thorn" unicode="&#xfe;" horiz-adv-x="1010" 
 />
    <glyph glyph-name="ydieresis" unicode="&#xff;" horiz-adv-x="868" 
 />
    <glyph glyph-name="dotlessi" unicode="&#x131;" horiz-adv-x="514" 
d="M328 223q0 -173 100 -173h46v-50h-442v50h46q100 0 100 173v432q0 77 -111 77h-48v44q222 69 261 182h48v-735z" />
    <glyph glyph-name="circumflex" unicode="&#x2c6;" horiz-adv-x="1024" 
d="M221 1079l232 355h118l232 -355h-58l-233 216l-233 -216h-58z" />
    <glyph glyph-name="caron" unicode="&#x2c7;" horiz-adv-x="1024" 
d="M221 1434h58l233 -214l233 214h58l-232 -356h-118z" />
    <glyph glyph-name="uni02C9" unicode="&#x2c9;" horiz-adv-x="1024" 
d="M254 1195v125h516v-125h-516z" />
    <glyph glyph-name="breve" unicode="&#x2d8;" horiz-adv-x="1024" 
d="M219 1349h51q17 -73 75 -107t167 -34t166 33.5t74 107.5h51q-20 -133 -94 -201.5t-197 -68.5q-122 0 -197 69t-96 201z" />
    <glyph glyph-name="dotaccent" unicode="&#x2d9;" horiz-adv-x="1024" 
d="M422 1289l69 72q6 6 13 9t14 3q6 0 12.5 -3t12.5 -9l71 -76q5 -4 7 -10t2 -14q-1 -9 -3 -15t-8 -12l-71 -76q-12 -11 -16 -13.5t-7 -2.5q-10 0 -16.5 2.5t-10.5 8.5l-75 87q-4 4 -6 9.5t-2 13.5q0 6 3 12.5t11 13.5z" />
    <glyph glyph-name="ring" unicode="&#x2da;" horiz-adv-x="1024" 
d="M411 1257q0 -42 29 -71t71 -29t71 29t29 71q0 40 -29.5 69.5t-70.5 29.5t-70.5 -29.5t-29.5 -69.5zM335 1257q0 75 51 126t125 51q76 0 127.5 -51.5t51.5 -125.5q0 -75 -51.5 -126.5t-127.5 -51.5q-74 0 -125 51.5t-51 126.5z" />
    <glyph glyph-name="ogonek" unicode="&#x2db;" horiz-adv-x="1024" 
d="M640 0q-71 -62 -110.5 -119.5t-39.5 -112.5q0 -47 27 -75t73 -28q40 0 69.5 15.5t49.5 48.5l28 -16q-36 -63 -90.5 -97t-119.5 -34q-70 0 -114 35.5t-44 90.5q0 76 60.5 156.5t161.5 135.5h49z" />
    <glyph glyph-name="tilde" unicode="&#x2dc;" horiz-adv-x="1024" 
d="M808 1382q-20 -103 -68.5 -154t-126.5 -51h-4q-50 0 -113 23q-66 24 -114 24q-39 0 -60.5 -20.5t-33.5 -71.5h-54q19 106 68 158.5t129 52.5q46 -1 113 -24q64 -23 112 -23h4q36 0 58 20t36 66h54z" />
    <glyph glyph-name="hungarumlaut" unicode="&#x2dd;" horiz-adv-x="500" 
d="M-100 1000q6 64 83 175q82 119 88 191h88q-6 -99 -104 -241q-59 -86 -66 -125h-89zM99 1000q6 64 83 175q82 119 88 191h88q-6 -99 -104 -241q-59 -86 -66 -125h-89z" />
    <glyph glyph-name="endash" unicode="&#x2013;" horiz-adv-x="1108" 
d="M56 419v120h996v-120h-996z" />
    <glyph glyph-name="emdash" unicode="&#x2014;" horiz-adv-x="2048" 
d="M0 419v120h2048v-120h-2048z" />
    <glyph glyph-name="quoteleft" unicode="&#x2018;" horiz-adv-x="300" 
d="M-100 1000q6 64 83 175q82 119 88 191h88q-6 -99 -104 -241q-59 -86 -66 -125h-89z" />
    <glyph glyph-name="quoteright" unicode="&#x2019;" horiz-adv-x="300" 
d="M70 1000q-7 39 -66 125q-98 142 -104 241h88q6 -72 88 -191q76 -111 83 -175h-89z" />
    <glyph glyph-name="quotesinglbase" unicode="&#x201a;" horiz-adv-x="300" 
d="M-60 -166q6 64 83 175q82 119 88 191h88q-6 -99 -104 -241q-59 -86 -66 -125h-89z" />
    <glyph glyph-name="quotedblleft" unicode="&#x201c;" horiz-adv-x="500" 
d="M-100 1000q6 64 83 175q82 119 88 191h88q-6 -99 -104 -241q-59 -86 -66 -125h-89zM99 1000q6 64 83 175q82 119 88 191h88q-6 -99 -104 -241q-59 -86 -66 -125h-89z" />
    <glyph glyph-name="quotedblright" unicode="&#x201d;" horiz-adv-x="500" 
d="M269 1000q-7 39 -66 125q-98 142 -104 241h88q6 -72 88 -191q76 -111 83 -175h-89zM70 1000q-7 39 -66 125q-98 142 -104 241h88q6 -72 88 -191q76 -111 83 -175h-89z" />
    <glyph glyph-name="quotedblbase" unicode="&#x201e;" horiz-adv-x="500" 
d="M-60 -166q6 64 83 175q82 119 88 191h88q-6 -99 -104 -241q-59 -86 -66 -125h-89zM139 -166q6 64 83 175q82 119 88 191h88q-6 -99 -104 -241q-59 -86 -66 -125h-89z" />
    <glyph glyph-name="dagger" unicode="&#x2020;" 
d="M486 1022q-8 97 -54 178q-57 101 -57 129q0 49 36 78.5t96 29.5q57 0 94.5 -27.5t37.5 -71.5q0 -32 -55 -137q-46 -85 -55 -179q96 8 177 54q101 57 129 57q49 0 79 -36t30 -96q0 -57 -27.5 -94.5t-72.5 -37.5q-32 0 -136 55q-85 46 -179 57q8 -176 110 -277
q-106 -460 -112 -974h-38q-6 514 -114 974q102 101 111 277q-96 -10 -178 -55q-101 -57 -129 -57q-49 0 -78.5 36t-29.5 96q0 57 27.5 94.5t71.5 37.5q32 0 137 -56q85 -46 179 -55z" />
    <glyph glyph-name="daggerdbl" unicode="&#x2021;" 
d="M528 186q94 11 179 57q104 55 136 55q45 0 72.5 -37.5t27.5 -94.5q0 -60 -30 -96t-79 -36q-28 0 -129 57q-81 46 -177 54q9 -94 55 -179q55 -105 55 -137q0 -44 -37.5 -71.5t-94.5 -27.5q-60 0 -96 29.5t-36 78.5q0 28 57 129q46 81 54 178q-94 -9 -179 -55
q-105 -56 -137 -56q-44 0 -71.5 37.5t-27.5 94.5q0 60 29.5 96t78.5 36q28 0 129 -57q82 -45 178 -55q-9 226 -111 398q102 171 111 397q-96 -10 -178 -55q-101 -57 -129 -57q-49 0 -78.5 36t-29.5 96q0 57 27.5 94.5t71.5 37.5q32 0 137 -56q85 -46 179 -55q-8 97 -54 178
q-57 101 -57 129q0 49 36 78.5t96 29.5q57 0 94.5 -27.5t37.5 -71.5q0 -32 -55 -137q-46 -85 -55 -179q96 8 177 54q101 57 129 57q49 0 79 -36t30 -96q0 -57 -27.5 -94.5t-72.5 -37.5q-32 0 -136 55q-85 46 -179 57q8 -226 110 -397q-102 -172 -110 -398z" />
    <glyph glyph-name="bullet" unicode="&#x2022;" horiz-adv-x="1024" 
d="M216 718q0 123 87 209t210 86q122 0 208.5 -86.5t86.5 -208.5t-87.5 -209.5t-209.5 -87.5q-123 0 -209 87t-86 210z" />
    <glyph glyph-name="ellipsis" unicode="&#x2026;" horiz-adv-x="1400" 
d="M120 59q-20 19 -20 47t20 47q19 20 47 20t47 -20q20 -19 20 -47t-20 -47q-19 -20 -47 -20t-47 20zM586 59q-20 19 -20 47t20 47q19 20 47 20t47 -20q20 -19 20 -47t-20 -47q-19 -20 -47 -20t-47 20zM1046 59q-20 19 -20 47t20 47q19 20 47 20t47 -20q20 -19 20 -47
t-20 -47q-19 -20 -47 -20t-47 20z" />
    <glyph glyph-name="guilsinglleft" unicode="&#x2039;" horiz-adv-x="631" 
d="M174 479l342 303h14v-37l-205 -266l205 -266v-37h-14z" />
    <glyph glyph-name="guilsinglright" unicode="&#x203a;" horiz-adv-x="631" 
d="M115 176h-14v37l205 266l-205 266v37h14l342 -303z" />
    <glyph glyph-name="fraction" unicode="&#x2044;" horiz-adv-x="342" 
d="M-342 -29l940 1461h84l-938 -1461h-86z" />
    <glyph glyph-name="fraction" unicode="&#x2215;" horiz-adv-x="342" 
d="M-342 -29l940 1461h84l-938 -1461h-86z" />
    <glyph glyph-name="franc" unicode="&#x20a3;" 
d="M247 357h-194v60h194v732q0 235 -103 235h-96v50h915l103 -231h-49q-59 182 -190 182l-316 -1q-102 0 -102 -235v-352h361q100 0 100 63v58h50v-342h-50v60q0 62 -100 62h-361v-281h194v-60h-194v-72q0 -235 102 -235h97v-50h-560v50h96q103 0 103 235v72z" />
    <glyph glyph-name="lira" unicode="&#x20a4;" 
d="M748 1347q-72 31 -160 31h-2q-100 0 -190 -101q-84 -93 -84 -241q0 -15 1 -30q0 -106 33 -213h380v-60h-360q12 -30 26 -60h352v-60h-321q35 -63 35 -138q0 -161 -162 -375h402q130 0 189 132l49 -1l-103 -231h-719l1 50q187 238 187 418q0 77 -34 143l-2 2h-172v60h143
q-14 31 -26 60h-135v60h113q-36 107 -36 193q0 226 123.5 347t310.5 121q75 0 185.5 -14t110.5 -34v-161h-58q-5 61 -77 102z" />
    <glyph glyph-name="peseta" unicode="&#x20a7;" horiz-adv-x="2028" 
d="M409 1384v-662q3 -9 7 -17q41 -102 108 -153q57 -44 116 -44q10 0 19 1q68 8 127 75t87 177q22 87 22 179q0 24 -1 47q-7 116 -49.5 218.5t-108.5 144.5q-56 35 -112 35q-10 0 -21 -1h-194zM1496 908h-179v-685q0 -81 34 -119q28 -31 81 -37l-71 192l49 1
q55 -130 114 -174q57 -44 127 -44h7q92 0 151 52q59 53 59 136q0 102 -259 226q-101 52 -144 112t-43 145q0 121 73 194zM1039 910q-7 -101 -48 -194q-50 -114 -141 -177.5t-190 -63.5q-100 0 -191 64q-33 22 -60 51v-305q0 -235 102 -235h97v-50h-560v50h96q103 0 103 235
v864q0 235 -103 235h-96v50h618q92 -2 181 -62q91 -62 143 -177q50 -113 51 -237h10q216 0 216 355h50v-355h259q42 19 110 20h2q54 0 133.5 -13.5t79.5 -33.5v-159h-42q-4 66 -65.5 108t-133.5 42q-64 0 -102.5 -36.5t-38.5 -96.5q0 -108 235 -220q122 -55 167.5 -117.5
t45.5 -153.5q0 -140 -83 -231q-102 -84 -228 -86q-58 0 -105 11q-28 6 -56 6q-18 0 -36 -3q-28 -5 -59 -5q-124 0 -173.5 57t-57.5 176h-1v687h-129z" />
    <glyph glyph-name="Euro" unicode="&#x20ac;" horiz-adv-x="1153" 
d="M430 37q-88 56 -124 182q-14 48 -18 233l-1 18h-187v88h186v19q0 55 1 117v19h-187v88h189v18q5 197 11 233q26 135 115 198q88 63 254 63q319 0 376 -243l-86 -16q-23 90 -91 131q-68 40 -199 40q-144 0 -210 -51q-54 -42 -72 -139q-8 -38 -12 -215v-19h367v-88h-368
v-19q-1 -61 -1 -117l1 -19h368v-88h-367v-19q4 -169 15 -207q25 -88 81 -128q68 -48 205 -48q132 0 196 40q55 35 82 118l84 -25q-38 -117 -124 -169q-85 -52 -238 -52q-158 0 -246 57z" />
    <glyph glyph-name="uni2116" unicode="&#x2116;" horiz-adv-x="1852" 
d="M1100 1021q-38 -203 4 -348q23 -81 84 -128q62 -48 144 -48q175 0 225 176q42 145 4 348q-17 88 -80 139q-64 51 -156 51q-189 0 -225 -190zM1136 475q-85 65 -117 174q-47 165 -5 389q24 126 104 193t207 67q122 0 211 -71q89 -72 111 -189q42 -224 -5 -389
q-33 -113 -115 -176t-195 -63q-111 0 -196 65zM1023 254h615v-88h-615v88zM739 0q-11 210 -358 740q-113 171 -158 249l-35 59v-1048h-88v1288h89q13 -116 265 -500q179 -272 250 -410l35 -61v971h88v-1288h-88z" />
    <glyph glyph-name="trademark" unicode="&#x2122;" horiz-adv-x="1266" 
d="M801 842q-9 119 -118 369l-19 44l-16 -45q-77 -217 -82 -358h-31q6 178 110 436h37q75 -160 117 -296l18 -58l18 58q41 136 115 296h38q106 -258 113 -436h-31q-5 142 -85 359l-16 44l-19 -43q-107 -250 -116 -370h-33zM253 851v407h-153v30h336v-30h-153v-407h-30z" />
    <glyph glyph-name="partialdiff" unicode="&#x2202;" 
d="M232 537q0 -41 5 -79q14 -122 61.5 -230t118.5 -165q64 -53 128 -53q6 0 13 1q70 5 127.5 70.5t80.5 179.5q16 73 16 149q0 42 -5 85q-14 122 -62.5 231.5t-119.5 165.5q-65 50 -128 50h-11q-68 -5 -126 -69.5t-82 -178.5q-16 -84 -16 -157zM937 477q0 -132 -56.5 -251
t-159 -185t-214.5 -66t-214.5 66t-159 185t-56.5 251q0 131 58 251t161 185t211 65q109 0 212 -65q29 -18 54 -41q-84 235 -233.5 377t-326.5 155v55q306 0 515 -285t209 -697z" />
    <glyph glyph-name="Delta" unicode="&#x2206;" horiz-adv-x="1081" 
d="M514 1195l-406 -1072h801zM547 1434l526 -1434h-1067z" />
    <glyph glyph-name="product" unicode="&#x220f;" horiz-adv-x="1515" 
d="M511 1384q-102 0 -102 -235v-1281q0 -235 102 -235h97v-51h-560v51h96q103 0 103 235v1281q0 235 -103 235h-96v50h1419v-50h-97q-102 0 -102 -235v-1281q0 -235 102 -235h97v-50h-560v50h96q103 0 103 235v1281q0 235 -103 235h-492z" />
    <glyph glyph-name="summation" unicode="&#x2211;" horiz-adv-x="1206" 
d="M1059 548l-788 -914h635q130 0 189 182h49l-103 -232h-921v50q62 0 106 53l663 781l-663 859q-44 57 -106 57v50h921l103 -232h-49q-59 182 -189 182h-485z" />
    <glyph glyph-name="minus" unicode="&#x2212;" 
d="M87 647v140h839l1 -1v-139h-840z" />
    <glyph glyph-name="radical" unicode="&#x221a;" 
d="M181 0l-164 359l74 35l85 -185l728 1470h150v-60h-72z" />
    <glyph glyph-name="infinity" unicode="&#x221e;" 
d="M439 755q-15 103 -74 133q-46 22 -84 22q-12 0 -23 -2q-49 -10 -92.5 -44.5t-65.5 -84.5q-20 -46 -20 -90v-8q2 -48 27.5 -89t71.5 -58q29 -11 61 -11q16 0 33 3q47 10 90.5 43.5t75.5 185.5zM466 687q12 -96 94 -153q69 -48 123 -48q11 0 21 2q62 12 117.5 52t84.5 101
q26 54 26 108v11q-2 60 -35.5 108.5t-91.5 68.5q-37 13 -76 13q-22 0 -44 -4q-67 -9 -127 -62t-92 -197zM450 827q9 35 21 69q34 88 95 137t128 49t128 -48t95 -135t34 -182t-34 -182t-95 -135t-128 -48t-128 49t-95 136q-12 35 -21 70q-5 -21 -12 -41q-27 -73 -74 -113
t-99 -40t-100 41t-73.5 113.5t-25.5 149.5q0 76 25.5 149t73.5 114t100 41t99 -40t74 -112q7 -21 12 -42z" />
    <glyph glyph-name="integral" unicode="&#x222b;" horiz-adv-x="665" 
d="M-12 -281q-60 0 -60 29v159h36q1 -43 34.5 -64.5t63.5 -21.5h1q82 0 115 162q32 162 40 316l70 734l8 62q27 238 135 429.5t234 191.5q60 0 60 -29v-159h-36q-1 43 -35 64.5t-63 21.5q-71 0 -116 -155.5t-49 -363.5l-73 -767q-20 -231 -130.5 -420t-234.5 -189z" />
    <glyph glyph-name="approxequal" unicode="&#x2248;" 
d="M923 1053v-156q-63 -72 -122 -97.5t-116 -25.5q-60 0 -177.5 48.5t-176.5 48.5q-51 0 -107.5 -28t-129.5 -112v156q64 73 123 99t114 26q64 0 181.5 -49.5t172.5 -49.5q52 0 108.5 28t129.5 112zM923 705v-156q-63 -72 -122 -97.5t-116 -25.5q-60 0 -177.5 48.5
t-176.5 48.5q-51 0 -107.5 -28t-129.5 -112v156q64 73 123 99t114 26q64 0 181.5 -49.5t172.5 -49.5q52 0 108.5 28t129.5 112z" />
    <glyph glyph-name="lessequal" unicode="&#x2264;" 
d="M927 1074l-625 -359l625 -355v-167l-840 481v83l840 484v-167zM87 1v140h839l1 -1v-139h-840z" />
    <glyph glyph-name="greaterequal" unicode="&#x2265;" 
d="M87 1241l840 -484v-83l-840 -481v167l625 355l-625 359v167zM87 2v140h839l1 -1v-139h-840z" />
    <glyph glyph-name="uniF001" unicode="&#xf001;" horiz-adv-x="1073" 
 />
    <glyph glyph-name="uniF001" unicode="&#xfb01;" horiz-adv-x="1073" 
 />
    <glyph glyph-name="uniF002" unicode="&#xf002;" horiz-adv-x="1081" 
 />
    <glyph glyph-name="uniF002" unicode="&#xfb02;" horiz-adv-x="1081" 
 />
  </font>
</defs>
</svg>
